<svg width="500" height="1000" fill="none" xmlns="http://www.w3.org/2000/svg">
<g id="egypt_bg_mobile 1" clip-path="url(#clip0_239_7)">
<g id="Group 1">
<g id="BACKGROUND Oficial">
<path id="bg_3" d="M500 0H0V1000H500V0Z" fill="url(#paint0_radial_239_7)"/>
<path id="bg_2" d="M500 0H0V1000H500V0Z" fill="url(#paint1_radial_239_7)"/>
<path id="bg_1" d="M500 0H0V1000H500V0Z" fill="#01334A"/>
</g>
<path id="atreia_duna" d="M500 800H0V1000H500V800Z" fill="#706C04"/>
<path id="adoua_duna" d="M0 850H266.659C285.362 850 303.995 852.259 322.143 856.725L381.831 871.415C391.091 873.695 400.812 873.365 409.893 870.467L444.388 859.455C463.104 853.478 483.565 856.204 500 866.861V1000H0V850Z" fill="#646004"/>
<path id="prima_duna" d="M500 940.868V1000H0V900.163C0 900.163 97.6081 896.155 264.12 927.894C380.526 950.083 500 940.868 500 940.868Z" fill="#504E12"/>
<g id="Group_7">
<g id="Group_8">
<path id="Vector_118" d="M312.711 875.272C312.54 874.397 312.202 873.423 311.682 873.028C311.236 872.691 310.993 872.485 310.49 872.489C309.892 872.494 309.311 872.898 308.886 873.605C308.432 874.359 308.186 875.403 308.183 876.471C308.18 877.538 308.432 878.585 308.883 879.342C309.308 880.045 309.889 880.452 310.49 880.457C311.008 880.462 311.216 880.249 311.679 879.919C312.159 879.574 312.575 878.474 312.708 877.673C312.757 877.373 312.771 877.038 312.774 876.699C312.812 876.223 312.8 875.737 312.711 875.272Z" fill="#474210"/>
<path id="Vector_119" d="M159.571 895.699C159.377 895.375 159.059 895.127 158.78 895.147C158.49 895.171 158.19 895.331 157.988 895.699C157.787 896.063 157.66 896.519 157.66 897.028V897.305C157.66 897.785 157.785 898.289 157.988 898.633C158.182 898.958 158.501 899.201 158.78 899.181C159.069 899.162 159.369 899.002 159.571 898.633C159.772 898.265 159.899 897.814 159.899 897.305V897.028C159.899 896.543 159.774 896.039 159.571 895.699Z" fill="#474210"/>
<path id="Vector_120" d="M499.344 881.349C498.956 880.7 498.317 880.21 497.759 880.248C497.181 880.292 496.58 880.612 496.178 881.349C495.776 882.087 495.522 882.989 495.522 884.007V884.565C495.522 885.525 495.77 886.538 496.178 887.217C496.565 887.872 497.201 888.362 497.759 888.318C498.34 888.275 498.939 887.955 499.344 887.217C499.746 886.485 500 885.578 500 884.565V884.007C500 883.042 499.748 882.033 499.344 881.349Z" fill="#474210"/>
<path id="Vector_121" d="M231.815 900.132C229.565 900.132 229.561 906 231.815 906C234.066 906 234.07 900.132 231.815 900.132Z" fill="#474210"/>
<path id="Vector_122" d="M424.559 893.828C422.81 893.828 422.807 898.386 424.559 898.386C426.308 898.386 426.308 893.828 424.559 893.828Z" fill="#474210"/>
<path id="Vector_123" d="M3.82168 885.777C3.43315 885.127 2.79637 884.637 2.23869 884.676C1.65962 884.72 1.05916 885.04 0.655684 885.777C0.253716 886.514 0 887.416 0 888.435V889.686C0 890.646 0.249755 891.66 0.655684 892.339C1.04372 892.993 1.68102 893.483 2.23869 893.439C2.81777 893.396 3.4182 893.081 3.82168 892.339C4.22364 891.606 4.47736 890.704 4.47736 889.686V888.435C4.47736 887.47 4.22763 886.461 3.82168 885.777Z" fill="#474210"/>
<path id="Vector_124" d="M128.016 857.1C127.578 856.426 127.039 856 126.433 856H125.687C125.113 856 124.51 856.419 124.104 857.1C123.716 857.751 123.423 858.82 123.448 859.756C123.474 860.727 123.664 861.734 124.104 862.411C124.542 863.085 125.081 863.511 125.687 863.511H126.433C127.007 863.511 127.61 863.092 128.016 862.411C128.405 861.76 128.697 860.691 128.672 859.756C128.646 858.784 128.456 857.777 128.016 857.1Z" fill="#474210"/>
<path id="Vector_125" d="M96.3721 898.081C96.0298 897.557 95.6095 897.222 95.1353 897.222H94.5522C94.1041 897.222 93.6329 897.547 93.3154 898.081C93.0122 898.59 92.7838 899.424 92.8031 900.156C92.8237 900.913 92.9717 901.703 93.3154 902.232C93.6577 902.76 94.0781 903.09 94.5522 903.09H95.1353C95.5835 903.09 96.0547 902.765 96.3721 902.232C96.6757 901.723 96.9038 900.889 96.8844 900.156C96.8642 899.4 96.7153 898.609 96.3721 898.081Z" fill="#474210"/>
</g>
</g>
<g id="Group_9">
<g id="Group_10">
<path id="Vector_126" d="M65.0013 979.822C65.1753 979.198 65.5248 978.503 66.0621 978.222C66.52 977.981 66.7701 977.834 67.2882 977.837C67.9056 977.841 68.5043 978.129 68.9435 978.633C69.4125 979.171 69.6657 979.916 69.6684 980.677C69.6708 981.438 69.4134 982.187 68.9468 982.723C68.5086 983.227 67.9098 983.516 67.2912 983.519C66.7563 983.522 66.5407 983.372 66.0645 983.136C65.5708 982.891 65.1389 982.105 65.0037 981.536C64.9531 981.322 64.9366 981.083 64.936 980.84C64.895 980.501 64.9086 980.154 65.0013 979.822Z" fill="#474210"/>
<path id="Vector_127" d="M21.9544 977.747C22.1284 977.123 22.4779 976.428 23.0152 976.146C23.4731 975.906 23.7232 975.759 24.2413 975.762C24.8587 975.766 25.4575 976.054 25.8967 976.558C26.3657 977.096 26.6188 977.84 26.6215 978.602C26.6239 979.363 26.3666 980.111 25.9 980.648C25.4617 981.151 24.8629 981.441 24.2443 981.444C23.7094 981.447 23.4939 981.297 23.0176 981.061C22.524 980.816 22.092 980.03 21.9568 979.461C21.9063 979.247 21.8897 979.007 21.8891 978.765C21.8482 978.425 21.8617 978.078 21.9544 977.747Z" fill="#474210"/>
<path id="Vector_128" d="M156.513 980.514C156.687 979.89 157.037 979.195 157.574 978.913C158.032 978.673 158.282 978.526 158.8 978.529C159.418 978.533 160.017 978.821 160.456 979.325C160.925 979.863 161.178 980.607 161.181 981.369C161.183 982.13 160.926 982.878 160.459 983.415C160.021 983.918 159.422 984.208 158.803 984.211C158.268 984.214 158.053 984.064 157.577 983.828C157.083 983.583 156.651 982.797 156.516 982.227C156.465 982.014 156.449 981.774 156.448 981.532C156.407 981.192 156.421 980.845 156.513 980.514Z" fill="#474210"/>
<path id="Vector_129" d="M53.2818 965.092C53.4817 964.86 53.8101 964.685 54.0976 964.7C54.3959 964.715 54.7057 964.829 54.9134 965.092C55.1208 965.354 55.2512 965.676 55.2512 966.039V966.237C55.2512 966.581 55.1229 966.941 54.9134 967.184C54.7135 967.416 54.3851 967.591 54.0976 967.576C53.7993 967.561 53.4896 967.447 53.2818 967.184C53.0747 966.922 52.9441 966.6 52.9441 966.237V966.039C52.9441 965.696 53.0726 965.335 53.2818 965.092Z" fill="#474210"/>
<path id="Vector_130" d="M154.342 963.653C154.542 963.421 154.87 963.246 155.158 963.261C155.456 963.276 155.766 963.39 155.973 963.653C156.181 963.915 156.311 964.237 156.311 964.6V964.798C156.311 965.142 156.182 965.502 155.973 965.745C155.774 965.977 155.445 966.152 155.158 966.137C154.859 966.122 154.55 966.008 154.342 965.745C154.135 965.483 154.004 965.161 154.004 964.798V964.6C154.004 964.257 154.133 963.896 154.342 963.653Z" fill="#474210"/>
<path id="Vector_131" d="M135.174 987.011C135.374 986.779 135.702 986.604 135.989 986.619C136.288 986.634 136.598 986.748 136.806 987.011C137.013 987.273 137.143 987.595 137.143 987.958V988.156C137.143 988.5 137.014 988.861 136.806 989.103C136.605 989.335 136.277 989.51 135.989 989.496C135.691 989.48 135.381 989.366 135.174 989.103C134.967 988.841 134.836 988.519 134.836 988.156V987.958C134.835 987.615 134.964 987.254 135.174 987.011Z" fill="#474210"/>
<path id="Vector_132" d="M496.06 965.48C496.46 965.015 497.116 964.666 497.691 964.696C498.287 964.727 498.907 964.955 499.323 965.48C499.738 966.004 500 966.648 500 967.374V967.771C500 968.458 499.741 969.179 499.323 969.665C498.922 970.129 498.266 970.479 497.691 970.449C497.095 970.418 496.475 970.191 496.06 969.665C495.644 969.14 495.382 968.496 495.382 967.771V967.374C495.382 966.687 495.641 965.966 496.06 965.48Z" fill="#474210"/>
<path id="Vector_133" d="M103.52 963.751C103.92 963.287 104.577 962.936 105.152 962.966C105.748 962.997 106.367 963.225 106.784 963.751C107.198 964.275 107.46 964.919 107.46 965.645V966.042C107.46 966.729 107.202 967.45 106.784 967.935C106.384 968.4 105.727 968.75 105.152 968.72C104.555 968.689 103.935 968.461 103.52 967.935C103.105 967.412 102.844 966.767 102.844 966.042V965.645C102.844 964.958 103.101 964.237 103.52 963.751Z" fill="#474210"/>
<path id="Vector_134" d="M283.998 988.213C286.319 988.213 286.322 992.398 283.998 992.398C281.677 992.398 281.674 988.213 283.998 988.213Z" fill="#474210"/>
<path id="Vector_135" d="M1.35257 957.229C3.15481 957.229 3.15782 960.479 1.35257 960.479C-0.449562 960.479 -0.452151 957.229 1.35257 957.229Z" fill="#474210"/>
<path id="Vector_136" d="M117.165 950C118.968 950 118.971 953.25 117.165 953.25C115.363 953.25 115.36 950 117.165 950Z" fill="#474210"/>
<path id="Vector_137" d="M340.429 994.533C340.829 994.069 341.485 993.719 342.06 993.749C342.656 993.78 343.276 994.007 343.692 994.533C344.107 995.057 344.369 995.702 344.369 996.427V997.32C344.369 998.007 344.11 998.728 343.692 999.214C343.292 999.678 342.635 1000.03 342.06 999.998C341.464 999.967 340.844 999.74 340.429 999.214C340.013 998.69 339.751 998.046 339.751 997.32V996.427C339.751 995.741 340.01 995.019 340.429 994.533Z" fill="#474210"/>
<path id="Vector_138" d="M310.326 968.245C310.778 967.764 311.332 967.461 311.958 967.461H312.728C313.318 967.461 313.941 967.76 314.36 968.245C314.76 968.71 315.061 969.472 315.037 970.139C315.01 970.832 314.814 971.55 314.36 972.033C313.908 972.514 313.354 972.818 312.728 972.818H311.958C311.368 972.818 310.745 972.519 310.326 972.033C309.926 971.569 309.625 970.806 309.652 970.139C309.676 969.446 309.875 968.728 310.326 968.245Z" fill="#474210"/>
<path id="Vector_139" d="M243.651 989.172C244.004 988.797 244.438 988.559 244.926 988.559H245.527C245.989 988.559 246.475 988.792 246.802 989.172C247.115 989.535 247.35 990.131 247.33 990.652C247.309 991.193 247.156 991.754 246.802 992.131C246.449 992.507 246.016 992.745 245.527 992.745H244.926C244.463 992.745 243.978 992.511 243.651 992.131C243.339 991.768 243.103 991.173 243.123 990.652C243.144 990.11 243.298 989.549 243.651 989.172Z" fill="#474210"/>
</g>
</g>
<g id="Camels">
<g id="Group_33">
<g id="Group_34">
<path id="Vector_162" d="M102.756 862.389L106.527 858.466C107.72 857.227 109.428 856.63 111.132 856.858C113.57 857.184 116.032 856.472 117.919 854.895L123.146 850.529C124.926 849.042 127.249 848.371 129.543 848.678L136.546 849.615C138.681 849.901 140.624 851.011 141.957 852.709L149.259 862.022C153.026 866.823 155.301 872.622 155.808 878.704L156.566 887.768L164.431 898.576L164.243 926.486L159.89 925.903L160.596 900.723C160.596 900.723 145.991 893.892 141.638 880.006C141.638 880.006 126.095 886.796 112.42 879.645L118.015 920.695L113.394 920.077L105.266 878.384L94.9268 877.485C91.4392 877.181 88.3985 875 86.9899 871.797L79.7554 855.321L72.2695 854.649C70.857 854.523 69.8315 853.242 70.023 851.835C70.2864 849.843 72.0301 848.382 74.0373 848.467L80.1944 848.728C80.1944 848.728 80.2143 846.436 83.8456 846.024C85.6492 845.819 87.3371 846.969 87.8479 848.711C89.3443 853.834 93.6219 864.568 102.756 862.389Z" fill="#504E12"/>
<path id="Vector_163" d="M105.8 876.099L89.9148 916.937L94.0528 917.491L109.559 882.785L105.8 876.099Z" fill="#504E12"/>
<path id="Vector_164" d="M137.703 877.928L148.673 902.012L133.262 922.735L136.53 923.172L153.453 902.735L151.685 881.129L137.703 877.928Z" fill="#504E12"/>
</g>
</g>
<g id="Group_35">
<g id="Group_36">
<g id="Group_37">
<path id="Vector_165" d="M197.419 870.416L205.224 860.512C206.788 858.527 209.625 858.097 211.708 859.53L214.442 861.412C215.866 862.394 217.794 862.2 218.999 860.953L220.698 859.19C222.706 857.106 225.543 856.03 228.428 856.258L228.643 856.275C231.161 856.473 233.5 857.648 235.163 859.547L243.815 869.425C246.672 872.684 248.507 876.707 249.102 880.999L250.63 892.068L258.782 902.077L260.063 929L255.833 928.665L255.195 904.349C255.195 904.349 240.754 898.527 235.834 885.366C235.834 885.366 221.201 892.727 207.642 886.548L215.184 925.836L210.695 925.481L200.679 885.706L192.183 885.43C187.866 885.289 183.971 882.806 182.024 878.951L174.869 864.805L167.555 864.547C166.222 864.5 165.193 863.349 165.3 862.017C165.456 860.046 167.088 858.519 169.063 858.495L174.949 858.425C174.949 858.425 174.853 856.327 178.07 855.674C179.913 855.3 181.745 856.372 182.375 858.144C184.127 863.056 188.808 872.971 197.419 870.416Z" fill="#504E12"/>
<path id="Vector_166" d="M231.931 883.569L243.767 906.216L229.996 927.005L233.168 927.256L248.415 906.663L245.582 885.923L231.931 883.569Z" fill="#504E12"/>
</g>
</g>
<path id="Vector_167" d="M201.844 883.181L187.982 900.075L198.54 922.643C199.929 922.021 200.599 920.428 200.068 919.001L193.033 899.995L205.938 890.543L201.844 883.181Z" fill="#504E12"/>
</g>
<path id="Vector_168" d="M186.138 871.661C181.15 877.176 174.774 879.998 168.381 879.958C161.697 879.916 155.209 876.847 149.619 871.934C149.379 871.723 149.156 872.245 149.395 872.454C155.145 877.509 161.865 880.638 168.744 880.56C175.141 880.487 181.461 877.603 186.449 872.088C186.669 871.843 186.354 871.418 186.138 871.661Z" fill="#504E12"/>
<path id="Vector_169" d="M101.95 866.343C99.0609 871.505 96.0681 876.867 92.2254 880.487C88.5303 883.971 84.3565 885.339 81.0884 882.881C74.2649 877.748 75.1188 864.038 76.9743 852.794C77.0581 852.295 76.5354 852.376 76.4556 852.873C74.5083 864.647 73.778 879.452 81.4116 884.023C84.6278 885.947 88.5264 884.627 92.0458 881.468C96.1439 877.785 99.3163 872.115 102.361 866.672C102.596 866.245 102.185 865.921 101.95 866.343Z" fill="#504E12"/>
</g>
<path id="fum" d="M479.635 736.672C479.635 738.139 479.721 739.578 479.88 740.988C475.503 737.561 470.544 736.81 466.63 739.59C461.776 743.04 459.943 750.928 461.529 759.099C454.724 753.886 445.943 750.737 436.352 750.737C417.281 750.737 401.409 763.162 397.945 779.603C395.789 777.892 393.216 776.892 390.458 776.892C387.792 776.892 385.299 777.823 383.19 779.429C381.542 772.655 377.542 767.14 372.359 764.312V756.771C365.263 747.379 355.13 741.502 343.885 741.502C328.122 741.502 314.555 753.053 308.443 769.654C303.781 765.154 298.146 763.845 293.812 766.928C291.596 768.503 290.023 771.017 289.12 774.063C288.497 775.106 287.992 776.261 287.633 777.505C286.586 775.223 285.01 773.766 283.245 773.766C280.891 773.766 278.862 776.372 277.99 780.082C276.583 779.198 274.992 778.7 273.307 778.7C270.693 778.7 268.312 779.907 266.492 781.883C262.826 782.772 259.428 784.259 256.433 786.225C254.062 784.829 251.461 783.732 248.685 783.005C246.698 779.651 243.492 777.462 239.865 777.462C238.083 777.462 236.399 777.988 234.91 778.924C233.986 774.999 231.842 772.241 229.348 772.241C228.187 772.241 227.104 772.838 226.184 773.87C225.298 771.722 224.009 769.942 222.323 768.743C220.604 767.521 218.667 767.038 216.674 767.194C215.774 766.914 214.83 766.762 213.859 766.762C211.543 766.762 209.39 767.613 207.585 769.064C201.447 754.599 189.168 744.713 174.998 744.713C164.37 744.713 154.794 750.267 148.088 759.143V760.725C146.591 760.302 145.04 760.053 143.438 760.053C134.07 760.053 126.156 767.715 123.599 778.232C121.365 776.531 118.729 775.547 115.909 775.547C112.99 775.547 110.269 776.604 107.985 778.415C104.321 761.018 87.5247 747.872 67.3479 747.872C57.2 747.872 47.906 751.204 40.707 756.721C42.3849 748.074 40.444 739.728 35.3099 736.077C31.169 733.136 25.922 733.93 21.289 737.557C21.458 736.065 21.547 734.542 21.547 732.989C21.547 716.822 12.322 703.307 0 700V800H148.087H372.357H500V705.49C488.354 708.62 479.635 721.391 479.635 736.672Z" fill="#2C2B01"/>
<g id="piramida_2">
<path id="Vector_3" d="M127.912 743L72.3425 819H56L127.912 743Z" fill="url(#paint2_radial_239_7)"/>
<g id="Group">
<path id="Vector_4" d="M113.528 763.208H111.743C111.059 763.208 111.053 764.266 111.743 764.266H113.528C114.218 764.266 114.218 763.208 113.528 763.208Z" fill="#46470E"/>
<path id="Vector_5" d="M96.3028 785.819H93.4484C92.7581 785.819 92.7581 786.877 93.4484 786.877H96.3028C96.9868 786.877 96.9868 785.819 96.3028 785.819Z" fill="#46470E"/>
<path id="Vector_6" d="M76.086 813.864H68.5988C67.9085 813.864 67.9085 814.922 68.5988 814.922H76.086C76.7762 814.923 76.7762 813.864 76.086 813.864Z" fill="#46470E"/>
<path id="Vector_7" d="M97.0115 777.349H95.233C94.5428 777.349 94.5428 778.408 95.233 778.408H97.0115C97.7018 778.408 97.7018 777.349 97.0115 777.349Z" fill="#46470E"/>
<path id="Vector_8" d="M109.269 767.468H108.199C107.509 767.468 107.509 768.526 108.199 768.526H109.269C109.959 768.526 109.959 767.468 109.269 767.468Z" fill="#46470E"/>
<path id="Vector_9" d="M86.1351 791.641H82.9264C82.2361 791.641 82.2361 792.7 82.9264 792.7H86.1351C86.8254 792.7 86.8254 791.641 86.1351 791.641Z" fill="#46470E"/>
<path id="Vector_10" d="M67.5665 807.978H65.4274C64.7371 807.978 64.7371 809.037 65.4274 809.037H67.5665C68.2506 809.038 68.2568 807.978 67.5665 807.978Z" fill="#46470E"/>
<path id="Vector_11" d="M80.2836 803.64H76.3596C75.6756 803.64 75.6693 804.699 76.3596 804.699H80.2836C80.9738 804.699 80.9738 803.64 80.2836 803.64Z" fill="#46470E"/>
<path id="Vector_12" d="M86.1539 802.228H83.654C82.97 802.228 82.9638 803.286 83.654 803.286H86.1539C86.838 803.287 86.8442 802.228 86.1539 802.228Z" fill="#46470E"/>
</g>
<path id="Vector_13" d="M127.912 743L210.451 819H72.3425L127.912 743Z" fill="#707215"/>
<g id="Group_2">
<path id="Vector_14" d="M135.194 783.227H141.077C141.767 783.227 141.767 784.297 141.077 784.297H135.194C134.504 784.297 134.504 783.227 135.194 783.227Z" fill="#595611"/>
<path id="Vector_15" d="M109.25 769.316H122.091C122.782 769.316 122.782 770.386 122.091 770.386H109.25C108.56 770.386 108.56 769.316 109.25 769.316Z" fill="#595611"/>
<path id="Vector_16" d="M140.075 760.22H147.569C148.259 760.22 148.259 761.29 147.569 761.29H140.075C139.391 761.29 139.385 760.22 140.075 760.22Z" fill="#595611"/>
<path id="Vector_17" d="M123.64 746.977H128.459C129.143 746.977 129.149 748.048 128.459 748.048H123.64C122.956 748.048 122.949 746.977 123.64 746.977Z" fill="#595611"/>
<path id="Vector_18" d="M168.177 798.342H174.06C174.75 798.342 174.75 799.412 174.06 799.412H168.177C167.487 799.412 167.487 798.342 168.177 798.342Z" fill="#595611"/>
<path id="Vector_19" d="M146.437 797.512H159.813C160.497 797.512 160.504 798.582 159.813 798.582H146.437C145.747 798.582 145.747 797.512 146.437 797.512Z" fill="#595611"/>
<path id="Vector_20" d="M142.152 811.05H155.529C156.219 811.05 156.219 812.12 155.529 812.12H142.152C141.468 812.12 141.468 811.05 142.152 811.05Z" fill="#595611"/>
<path id="Vector_21" d="M102.832 814.26H113.528C114.219 814.26 114.219 815.33 113.528 815.33H102.832C102.142 815.33 102.142 814.26 102.832 814.26Z" fill="#595611"/>
<path id="Vector_22" d="M92.1114 804.629H100.133C100.824 804.629 100.824 805.699 100.133 805.699H92.1114C91.4212 805.699 91.4212 804.629 92.1114 804.629Z" fill="#595611"/>
<path id="Vector_23" d="M110.929 795.132H124.84C125.524 795.132 125.53 796.202 124.84 796.202H110.929C110.239 796.202 110.239 795.132 110.929 795.132Z" fill="#595611"/>
<path id="Vector_24" d="M107.111 783.762H113.528C114.219 783.762 114.219 784.832 113.528 784.832H107.111C106.42 784.832 106.42 783.762 107.111 783.762Z" fill="#595611"/>
<path id="Vector_25" d="M133.272 755.94H136.481C137.171 755.94 137.171 757.01 136.481 757.01H133.272C132.582 757.01 132.582 755.94 133.272 755.94Z" fill="#595611"/>
<path id="Vector_26" d="M81.944 814.75H89.9722C90.6562 814.75 90.6625 815.82 89.9722 815.82H81.944C81.2537 815.82 81.2537 814.75 81.944 814.75Z" fill="#595611"/>
<path id="Vector_27" d="M165.248 786.303H175.951C176.641 786.303 176.641 787.373 175.951 787.373H165.248C164.564 787.373 164.564 786.303 165.248 786.303Z" fill="#595611"/>
<path id="Vector_28" d="M160.305 777.048H162.979C163.669 777.048 163.669 778.118 162.979 778.118H160.305C159.614 778.118 159.614 777.048 160.305 777.048Z" fill="#595611"/>
<path id="Vector_29" d="M182.511 807.393H191.074C191.764 807.393 191.764 808.463 191.074 808.463H182.511C181.827 808.463 181.827 807.393 182.511 807.393Z" fill="#595611"/>
<path id="Vector_30" d="M180.907 811.406H184.122C184.806 811.406 184.812 812.476 184.122 812.476H180.907C180.223 812.476 180.223 811.406 180.907 811.406Z" fill="#595611"/>
</g>
</g>
<g id="piramida_1">
<path id="Vector_31" d="M207.141 825L257.342 728L354.323 825H207.141Z" fill="#707215"/>
<g id="Group_3">
<path id="Vector_32" d="M271.24 789.875H266.166C265.571 789.875 265.571 790.797 266.166 790.797H271.24C271.836 790.797 271.836 789.875 271.24 789.875Z" fill="#595611"/>
<path id="Vector_33" d="M287.826 774.413H276.749C276.154 774.413 276.154 775.337 276.749 775.337H287.826C288.416 775.337 288.421 774.413 287.826 774.413Z" fill="#595611"/>
<path id="Vector_34" d="M297.052 773.952H291.978C291.382 773.952 291.382 774.875 291.978 774.875H297.052C297.647 774.875 297.647 773.952 297.052 773.952Z" fill="#595611"/>
<path id="Vector_35" d="M277.688 766.568H271.224C270.634 766.568 270.629 767.491 271.224 767.491H277.688C278.278 767.491 278.283 766.568 277.688 766.568Z" fill="#595611"/>
<path id="Vector_36" d="M289.44 759.445H284.361C283.771 759.445 283.765 760.368 284.361 760.368H289.44C290.031 760.368 290.036 759.445 289.44 759.445Z" fill="#595611"/>
<path id="Vector_37" d="M268.902 754.568H261.516C260.926 754.568 260.92 755.492 261.516 755.492H268.902C269.497 755.492 269.497 754.568 268.902 754.568Z" fill="#595611"/>
<path id="Vector_38" d="M267.287 740.492H263.136C262.54 740.492 262.54 741.415 263.136 741.415H267.287C267.883 741.415 267.883 740.492 267.287 740.492Z" fill="#595611"/>
<path id="Vector_39" d="M239.625 783.413H234.551C233.955 783.413 233.955 784.336 234.551 784.336H239.625C240.221 784.336 240.221 783.413 239.625 783.413Z" fill="#595611"/>
<path id="Vector_40" d="M241.245 801.412H229.707C229.112 801.412 229.112 802.335 229.707 802.335H241.245C241.835 802.335 241.835 801.412 241.245 801.412Z" fill="#595611"/>
<path id="Vector_41" d="M259.44 810.412H247.902C247.312 810.412 247.306 811.335 247.902 811.335H259.44C260.035 811.335 260.035 810.412 259.44 810.412Z" fill="#595611"/>
<path id="Vector_42" d="M293.361 813.181H284.13C283.54 813.181 283.535 814.104 284.13 814.104H293.361C293.957 814.104 293.957 813.181 293.361 813.181Z" fill="#595611"/>
<path id="Vector_43" d="M302.609 804.873H295.684C295.094 804.873 295.089 805.796 295.684 805.796H302.609C303.204 805.796 303.204 804.873 302.609 804.873Z" fill="#595611"/>
<path id="Vector_44" d="M288.303 801.643H276.304C275.709 801.643 275.709 802.566 276.304 802.566H288.303C288.893 802.566 288.899 801.643 288.303 801.643Z" fill="#595611"/>
<path id="Vector_45" d="M315.07 795.643H306.761C306.171 795.643 306.165 796.566 306.761 796.566H315.07C315.665 796.566 315.665 795.643 315.07 795.643Z" fill="#595611"/>
<path id="Vector_46" d="M312.302 780.413H306.761C306.171 780.413 306.165 781.336 306.761 781.336H312.302C312.892 781.336 312.897 780.413 312.302 780.413Z" fill="#595611"/>
<path id="Vector_47" d="M289.671 786.875H284.13C283.54 786.875 283.535 787.798 284.13 787.798H289.671C290.266 787.798 290.266 786.875 289.671 786.875Z" fill="#595611"/>
<path id="Vector_48" d="M267.105 762.875H264.332C263.741 762.875 263.736 763.799 264.332 763.799H267.105C267.695 763.799 267.7 762.875 267.105 762.875Z" fill="#595611"/>
<path id="Vector_49" d="M323.378 809.95H310.918C310.322 809.95 310.322 810.873 310.918 810.873H323.378C323.968 810.873 323.974 809.95 323.378 809.95Z" fill="#595611"/>
<path id="Vector_50" d="M311.379 818.719H304.454C303.859 818.719 303.859 819.642 304.454 819.642H311.379C311.969 819.642 311.974 818.719 311.379 818.719Z" fill="#595611"/>
<path id="Vector_51" d="M268.027 818.258H263.409C262.819 818.258 262.813 819.181 263.409 819.181H268.027C268.617 819.181 268.623 818.258 268.027 818.258Z" fill="#595611"/>
<path id="Vector_52" d="M242.152 773.029H232.92C232.325 773.029 232.325 773.952 232.92 773.952H242.152C242.742 773.952 242.747 773.029 242.152 773.029Z" fill="#595611"/>
<path id="Vector_53" d="M243.305 765.414H236.149C235.559 765.414 235.554 766.337 236.149 766.337H243.305C243.895 766.337 243.9 765.414 243.305 765.414Z" fill="#595611"/>
<path id="Vector_54" d="M248.379 765.183H246.073C245.477 765.183 245.477 766.106 246.073 766.106H248.379C248.974 766.106 248.974 765.183 248.379 765.183Z" fill="#595611"/>
<path id="Vector_55" d="M249.532 751.338H244.227C243.632 751.338 243.632 752.261 244.227 752.261H249.532C250.128 752.261 250.128 751.338 249.532 751.338Z" fill="#595611"/>
<path id="Vector_56" d="M253.228 748.107H249.532C248.942 748.107 248.937 749.03 249.532 749.03H253.228C253.818 749.03 253.824 748.107 253.228 748.107Z" fill="#595611"/>
<path id="Vector_57" d="M226.457 812.027H219.076C218.48 812.027 218.48 812.95 219.076 812.95H226.457C227.052 812.95 227.052 812.027 226.457 812.027Z" fill="#595611"/>
<path id="Vector_58" d="M227.846 815.489H225.073C224.483 815.489 224.477 816.412 225.073 816.412H227.846C228.436 816.412 228.436 815.489 227.846 815.489Z" fill="#595611"/>
<path id="Vector_59" d="M258.286 779.49H252.751C252.155 779.49 252.155 780.413 252.751 780.413H258.286C258.882 780.413 258.882 779.49 258.286 779.49Z" fill="#595611"/>
</g>
<path id="Vector_60" d="M257.342 728L207.141 825H168L257.342 728Z" fill="url(#paint3_radial_239_7)"/>
<g id="Group_4">
<path id="Vector_61" d="M232.303 759.645H226.151C225.555 759.645 225.555 760.568 226.151 760.568H232.303C232.899 760.568 232.899 759.645 232.303 759.645Z" fill="#46470E"/>
<path id="Vector_62" d="M238.767 759.029H237.228C236.632 759.029 236.632 759.952 237.228 759.952H238.767C239.362 759.952 239.362 759.029 238.767 759.029Z" fill="#46470E"/>
<path id="Vector_63" d="M238.456 750.722H235.688C235.098 750.722 235.093 751.645 235.688 751.645H238.456C239.051 751.645 239.051 750.722 238.456 750.722Z" fill="#46470E"/>
<path id="Vector_64" d="M241.229 747.338H238.456C237.866 747.338 237.86 748.261 238.456 748.261H241.229C241.819 748.261 241.824 747.338 241.229 747.338Z" fill="#46470E"/>
<path id="Vector_65" d="M251.994 740.877H247.998C247.403 740.877 247.403 741.8 247.998 741.8H251.994C252.59 741.8 252.59 740.877 251.994 740.877Z" fill="#46470E"/>
<path id="Vector_66" d="M228.136 786.874H225.674C225.078 786.874 225.078 787.798 225.674 787.798H228.136C228.731 787.798 228.731 786.874 228.136 786.874Z" fill="#46470E"/>
<path id="Vector_67" d="M208.321 794.72H205.553C204.958 794.72 204.958 795.643 205.553 795.643H208.321C208.916 795.643 208.916 794.72 208.321 794.72Z" fill="#46470E"/>
<path id="Vector_68" d="M223.383 775.952H216.919C216.329 775.952 216.324 776.875 216.919 776.875H223.383C223.978 776.875 223.978 775.952 223.383 775.952Z" fill="#46470E"/>
<path id="Vector_69" d="M226.151 779.029H224.612C224.021 779.029 224.016 779.952 224.612 779.952H226.151C226.746 779.952 226.746 779.029 226.151 779.029Z" fill="#46470E"/>
<path id="Vector_70" d="M223.995 766.722H220.921C220.326 766.722 220.326 767.645 220.921 767.645H223.995C224.59 767.645 224.59 766.722 223.995 766.722Z" fill="#46470E"/>
<path id="Vector_71" d="M234.46 768.259H233.537C232.942 768.259 232.942 769.182 233.537 769.182H234.46C235.05 769.182 235.055 768.259 234.46 768.259Z" fill="#46470E"/>
<path id="Vector_72" d="M207.694 784.874H203.998C203.408 784.874 203.402 785.797 203.998 785.797H207.694C208.284 785.797 208.284 784.874 207.694 784.874Z" fill="#46470E"/>
<path id="Vector_73" d="M193.538 807.95H185.846C185.251 807.95 185.251 808.873 185.846 808.873H193.538C194.133 808.873 194.133 807.95 193.538 807.95Z" fill="#46470E"/>
<path id="Vector_74" d="M198.151 811.335H195.383C194.788 811.335 194.788 812.258 195.383 812.258H198.151C198.746 812.258 198.746 811.335 198.151 811.335Z" fill="#46470E"/>
<path id="Vector_75" d="M197.54 802.412H195.694C195.099 802.412 195.099 803.335 195.694 803.335H197.54C198.13 803.335 198.135 802.412 197.54 802.412Z" fill="#46470E"/>
<path id="Vector_76" d="M183.078 817.18H174.153C173.563 817.18 173.557 818.103 174.153 818.103H183.078C183.668 818.103 183.674 817.18 183.078 817.18Z" fill="#46470E"/>
<path id="Vector_77" d="M183.384 820.872H180.922C180.326 820.872 180.326 821.795 180.922 821.795H183.384C183.979 821.795 183.979 820.872 183.384 820.872Z" fill="#46470E"/>
<path id="Vector_78" d="M209.844 820.565H199.69C199.1 820.565 199.095 821.488 199.69 821.488H209.844C210.44 821.488 210.44 820.565 209.844 820.565Z" fill="#46470E"/>
<path id="Vector_79" d="M217.536 804.873H214.152C213.556 804.873 213.556 805.796 214.152 805.796H217.536C218.132 805.796 218.132 804.873 217.536 804.873Z" fill="#46470E"/>
<path id="Vector_80" d="M219.382 801.181H217.231C216.635 801.181 216.635 802.104 217.231 802.104H219.382C219.977 802.104 219.977 801.181 219.382 801.181Z" fill="#46470E"/>
</g>
</g>
<g id="piramida_3">
<path id="Vector_81" d="M370.859 775L346.566 832.032H435L370.859 775Z" fill="#707215"/>
<g id="Group_5">
<path id="Vector_82" d="M349.877 826.14H355.989C356.699 826.14 356.706 825.029 355.989 825.029H349.877C349.167 825.029 349.161 826.14 349.877 826.14Z" fill="#46470E"/>
<path id="Vector_83" d="M364.573 790.157H377.901C378.617 790.157 378.617 789.046 377.901 789.046H364.573C363.863 789.046 363.857 790.157 364.573 790.157Z" fill="#46470E"/>
<path id="Vector_84" d="M378.972 797.263H386.749C387.466 797.263 387.466 796.153 386.749 796.153H378.972C378.262 796.153 378.256 797.263 378.972 797.263Z" fill="#46470E"/>
<path id="Vector_85" d="M362.63 808.166H368.742C369.452 808.166 369.459 807.056 368.742 807.056H362.63C361.92 807.056 361.914 808.166 362.63 808.166Z" fill="#46470E"/>
<path id="Vector_86" d="M374.532 821.254H383.419C384.129 821.254 384.136 820.144 383.419 820.144H374.532C373.816 820.144 373.816 821.254 374.532 821.254Z" fill="#46470E"/>
<path id="Vector_87" d="M392.319 826.695H397.321C398.031 826.695 398.038 825.585 397.321 825.585H392.319C391.609 825.585 391.609 826.695 392.319 826.695Z" fill="#46470E"/>
<path id="Vector_88" d="M397.915 803.65H401.245C401.955 803.65 401.962 802.539 401.245 802.539H397.915C397.199 802.539 397.199 803.65 397.915 803.65Z" fill="#46470E"/>
<path id="Vector_89" d="M367.891 783.493H370.666C371.376 783.493 371.382 782.382 370.666 782.382H367.891C367.174 782.382 367.174 783.493 367.891 783.493Z" fill="#46470E"/>
<path id="Vector_90" d="M412.153 817.367H418.542C419.252 817.367 419.259 816.256 418.542 816.256H412.153C411.443 816.256 411.436 817.367 412.153 817.367Z" fill="#46470E"/>
<path id="Vector_91" d="M420.227 821.81H424.667C425.384 821.81 425.384 820.699 424.667 820.699H420.227C419.51 820.699 419.51 821.81 420.227 821.81Z" fill="#46470E"/>
<path id="Vector_92" d="M351.265 817.367H354.602C355.312 817.367 355.318 816.256 354.602 816.256H351.265C350.555 816.256 350.548 817.367 351.265 817.367Z" fill="#46470E"/>
<path id="Vector_93" d="M385.601 811.702H392.268C392.978 811.702 392.984 810.591 392.268 810.591H385.601C384.884 810.591 384.884 811.702 385.601 811.702Z" fill="#46470E"/>
</g>
<path id="Vector_94" d="M370.859 775L346.566 832.032H317L370.859 775Z" fill="url(#paint4_radial_239_7)"/>
<g id="Group_6">
<path id="Vector_95" d="M368.278 781.827H366.425C365.709 781.827 365.709 782.926 366.425 782.926H368.278C368.994 782.926 368.994 781.827 368.278 781.827Z" fill="#595611"/>
<path id="Vector_96" d="M357.596 810.834H354.634C353.917 810.834 353.917 811.933 354.634 811.933H357.596C358.313 811.933 358.313 810.834 357.596 810.834Z" fill="#595611"/>
<path id="Vector_97" d="M333.755 820.173H330.424C329.708 820.173 329.708 821.272 330.424 821.272H333.755C334.471 821.272 334.471 820.173 333.755 820.173Z" fill="#595611"/>
<path id="Vector_98" d="M356.299 797.283H348.528C347.812 797.283 347.812 798.381 348.528 798.381H356.299C357.015 798.381 357.015 797.283 356.299 797.283Z" fill="#595611"/>
<path id="Vector_99" d="M355.208 801.494H353.356C352.646 801.494 352.639 802.593 353.356 802.593H355.208C355.924 802.593 355.924 801.494 355.208 801.494Z" fill="#595611"/>
<path id="Vector_100" d="M357.964 791.788H354.266C353.549 791.788 353.549 792.887 354.266 792.887H357.964C358.68 792.887 358.68 791.788 357.964 791.788Z" fill="#595611"/>
<path id="Vector_101" d="M365.205 788.676H364.095C363.379 788.676 363.379 789.773 364.095 789.773H365.205C365.922 789.773 365.922 788.676 365.205 788.676Z" fill="#595611"/>
<path id="Vector_102" d="M339.699 810.284H335.252C334.542 810.284 334.536 811.383 335.252 811.383H339.699C340.415 811.383 340.415 810.284 339.699 810.284Z" fill="#595611"/>
<path id="Vector_103" d="M347.044 816.877H343.713C342.997 816.877 342.997 817.976 343.713 817.976H347.044C347.76 817.976 347.76 816.877 347.044 816.877Z" fill="#595611"/>
<path id="Vector_104" d="M320.782 829.329H318.555C317.845 829.329 317.839 830.428 318.555 830.428H320.782C321.492 830.429 321.498 829.329 320.782 829.329Z" fill="#595611"/>
<path id="Vector_105" d="M340.977 829.329H336.904C336.188 829.329 336.188 830.428 336.904 830.428H340.977C341.687 830.429 341.693 829.329 340.977 829.329Z" fill="#595611"/>
<path id="Vector_106" d="M347.063 827.865H344.475C343.758 827.865 343.758 828.963 344.475 828.963H347.063C347.779 828.964 347.779 827.865 347.063 827.865Z" fill="#595611"/>
</g>
</g>
<path id="comet_2" opacity="0.2" d="M384.047 377.16C382.12 374.248 382.928 370.333 385.853 368.414L484 312L392.828 378.958C389.909 380.876 385.975 380.071 384.047 377.16Z" fill="url(#paint5_linear_239_7)"/>
<path id="comet_1" opacity="0.2" d="M327.264 451.575C324.937 448.064 325.913 443.342 329.446 441.029L448 373L337.874 453.743C334.342 456.057 329.591 455.086 327.264 451.575Z" fill="url(#paint6_linear_239_7)"/>
<path id="comet 4" opacity="0.2" d="M435.673 453.161C434.433 451.278 434.955 448.744 436.837 447.503L500 411L441.326 454.326C439.444 455.567 436.913 455.046 435.673 453.161Z" fill="url(#paint7_linear_239_7)"/>
<path id="Vector_116" d="M474 299.667C474 299.667 379.979 293.666 354 299.667C354 299.667 424.516 316.166 474 299.667Z" fill="#042C3F"/>
<path id="Vector_117" d="M59 232C59 232 352.548 235.485 459 248.632C459 248.632 136.912 262.26 59 254.733V232Z" fill="#012F45"/>
<path id="Vector_140" d="M4 177L354 185.437V192L4 184.5V177Z" fill="#012F45"/>
<path id="Vector_115" d="M0 0V84.9129L500 100V0H0ZM262.186 37.2875L499.747 25.6086V69.6226L262.186 37.2875Z" fill="#012F45"/>
<g id="stars">
<g id="Group_11">
<g id="Group_12">
<path id="stea_1" d="M94.815 507.269L93.687 506.652C92.6745 506.097 91.8378 505.262 91.283 504.245L90.6635 503.118C90.5803 502.961 90.3538 502.961 90.2659 503.118L89.6511 504.245C89.0963 505.261 88.2595 506.096 87.2424 506.652L86.1144 507.269C85.9619 507.355 85.9619 507.58 86.1144 507.666L87.2424 508.282C88.2595 508.838 89.0963 509.673 89.6511 510.69L90.2659 511.817C90.3538 511.973 90.5803 511.973 90.6635 511.817L91.283 510.69C91.8378 509.674 92.6745 508.838 93.687 508.282L94.815 507.666C94.9722 507.58 94.9722 507.355 94.815 507.269Z" fill="#C9B365"/>
</g>
<g id="Group_13">
<path id="stea_2" d="M74.2813 400.525L73.3521 400.016C72.5107 399.557 71.8218 398.867 71.3642 398.028L70.851 397.097C70.7817 396.968 70.5968 396.968 70.5274 397.097L70.0143 398.028C69.5566 398.867 68.8677 399.557 68.0263 400.016L67.0971 400.525C66.9676 400.596 66.9676 400.782 67.0971 400.853L68.0263 401.362C68.8677 401.821 69.5566 402.511 70.0143 403.35L70.5274 404.281C70.5968 404.41 70.7817 404.41 70.851 404.281L71.3642 403.35C71.8218 402.511 72.5107 401.821 73.3521 401.362L74.2813 400.853C74.4108 400.782 74.4108 400.596 74.2813 400.525Z" fill="#C9B365"/>
</g>
<g id="Group_14">
<path id="stea_3" d="M338.281 345.525L337.352 345.016C336.511 344.557 335.822 343.867 335.364 343.028L334.851 342.097C334.782 341.968 334.597 341.968 334.527 342.097L334.014 343.028C333.557 343.867 332.868 344.557 332.026 345.016L331.097 345.525C330.968 345.596 330.968 345.782 331.097 345.853L332.026 346.362C332.868 346.821 333.557 347.511 334.014 348.35L334.527 349.281C334.597 349.41 334.782 349.41 334.851 349.281L335.364 348.35C335.822 347.511 336.511 346.821 337.352 346.362L338.281 345.853C338.411 345.781 338.411 345.596 338.281 345.525Z" fill="#C9B365"/>
</g>
<g id="Group_15">
<path id="stea_4" d="M141.281 470.526L140.352 470.017C139.511 469.558 138.822 468.868 138.364 468.029L137.856 467.097C137.782 466.968 137.597 466.968 137.527 467.097L137.019 468.029C136.557 468.868 135.868 469.558 135.031 470.017L134.097 470.526C133.968 470.597 133.968 470.783 134.097 470.854L135.031 471.363C135.868 471.822 136.557 472.512 137.019 473.351L137.527 474.282C137.597 474.411 137.782 474.411 137.856 474.282L138.364 473.351C138.822 472.512 139.511 471.822 140.352 471.363L141.281 470.854C141.411 470.783 141.411 470.598 141.281 470.526Z" fill="#C9B365"/>
</g>
<g id="Group_16">
<path id="stea_5" d="M147.288 581.606L146.777 581.327C146.317 581.075 145.939 580.697 145.687 580.237L145.408 579.726C145.369 579.656 145.267 579.656 145.228 579.726L144.949 580.237C144.697 580.697 144.319 581.075 143.859 581.327L143.348 581.606C143.277 581.645 143.277 581.747 143.348 581.786L143.859 582.065C144.319 582.317 144.697 582.695 144.949 583.155L145.228 583.666C145.267 583.736 145.369 583.736 145.408 583.666L145.687 583.155C145.939 582.695 146.317 582.317 146.777 582.065L147.288 581.786C147.358 581.747 147.358 581.644 147.288 581.606Z" fill="#C9B365"/>
</g>
<g id="Group_17">
<path id="stea_6" d="M194.995 401.933L194.482 401.654C194.025 401.402 193.646 401.023 193.391 400.564L193.114 400.053C193.077 399.982 192.975 399.982 192.934 400.053L192.656 400.564C192.402 401.023 192.023 401.402 191.565 401.654L191.052 401.933C190.983 401.972 190.983 402.074 191.052 402.113L191.565 402.392C192.023 402.643 192.402 403.022 192.656 403.482L192.934 403.992C192.975 404.063 193.077 404.063 193.114 403.992L193.391 403.482C193.646 403.022 194.025 402.643 194.482 402.392L194.995 402.113C195.065 402.074 195.065 401.971 194.995 401.933Z" fill="#C9B365"/>
</g>
<g id="Group_18">
<path id="stea_7" d="M126.992 450.933L126.482 450.654C126.022 450.402 125.643 450.024 125.392 449.564L125.113 449.053C125.074 448.982 124.972 448.982 124.933 449.053L124.654 449.564C124.402 450.024 124.023 450.402 123.564 450.654L123.053 450.933C122.982 450.972 122.982 451.074 123.053 451.113L123.564 451.392C124.023 451.643 124.402 452.022 124.654 452.482L124.933 452.993C124.972 453.063 125.074 453.063 125.113 452.993L125.392 452.482C125.643 452.022 126.022 451.643 126.482 451.392L126.992 451.113C127.063 451.074 127.063 450.971 126.992 450.933Z" fill="#C9B365"/>
</g>
<g id="Group_19">
<path id="stea_8" d="M436.995 577.933L436.482 577.654C436.025 577.402 435.646 577.023 435.391 576.564L435.114 576.053C435.077 575.982 434.975 575.982 434.934 576.053L434.656 576.564C434.402 577.023 434.023 577.402 433.565 577.654L433.052 577.933C432.983 577.972 432.983 578.074 433.052 578.113L433.565 578.392C434.023 578.643 434.402 579.022 434.656 579.482L434.934 579.992C434.975 580.063 435.077 580.063 435.114 579.992L435.391 579.482C435.646 579.022 436.025 578.643 436.482 578.392L436.995 578.113C437.065 578.074 437.065 577.972 436.995 577.933Z" fill="#C9B365"/>
</g>
<g id="Group_20">
<path id="stea_9" d="M284.992 121.933L284.482 121.654C284.022 121.402 283.643 121.023 283.392 120.564L283.113 120.053C283.074 119.982 282.972 119.982 282.933 120.053L282.654 120.564C282.402 121.023 282.023 121.402 281.564 121.654L281.053 121.933C280.982 121.972 280.982 122.074 281.053 122.113L281.564 122.392C282.023 122.643 282.402 123.022 282.654 123.482L282.933 123.992C282.972 124.064 283.074 124.064 283.113 123.992L283.392 123.482C283.643 123.022 284.022 122.643 284.482 122.392L284.992 122.113C285.063 122.074 285.063 121.972 284.992 121.933Z" fill="#C9B365"/>
</g>
<g id="Group_21">
<path id="stea_10" d="M149.992 347.933L149.482 347.654C149.022 347.403 148.643 347.024 148.392 346.564L148.113 346.053C148.074 345.982 147.972 345.982 147.933 346.053L147.654 346.564C147.402 347.024 147.023 347.402 146.564 347.654L146.053 347.933C145.982 347.972 145.982 348.074 146.053 348.113L146.564 348.392C147.023 348.643 147.402 349.022 147.654 349.482L147.933 349.993C147.972 350.064 148.074 350.064 148.113 349.993L148.392 349.482C148.643 349.022 149.022 348.643 149.482 348.392L149.992 348.113C150.063 348.074 150.063 347.972 149.992 347.933Z" fill="#C9B365"/>
</g>
<g id="Group_22">
<path id="stea_11" d="M335.114 540.269L336.242 539.652C337.259 539.097 338.096 538.262 338.651 537.245L339.266 536.118C339.354 535.961 339.58 535.961 339.663 536.118L340.283 537.245C340.838 538.261 341.67 539.096 342.687 539.652L343.815 540.269C343.972 540.355 343.972 540.58 343.815 540.666L342.687 541.282C341.675 541.838 340.838 542.674 340.283 543.69L339.663 544.817C339.58 544.973 339.354 544.973 339.266 544.817L338.651 543.69C338.096 542.674 337.259 541.838 336.242 541.282L335.114 540.666C334.962 540.58 334.962 540.355 335.114 540.269Z" fill="#C9B365"/>
</g>
<g id="Group_23">
<path id="stea_12" d="M236.114 214.269L237.242 213.652C238.259 213.097 239.096 212.261 239.651 211.245L240.266 210.118C240.354 209.961 240.58 209.961 240.663 210.118L241.283 211.245C241.838 212.261 242.67 213.096 243.687 213.652L244.815 214.269C244.972 214.355 244.972 214.58 244.815 214.666L243.687 215.282C242.675 215.838 241.838 216.674 241.283 217.69L240.663 218.817C240.58 218.973 240.354 218.973 240.266 218.817L239.651 217.69C239.096 216.674 238.259 215.839 237.242 215.282L236.114 214.666C235.962 214.58 235.962 214.355 236.114 214.269Z" fill="#C9B365"/>
</g>
<g id="Group_24">
<path id="stea_13" d="M250.118 307.269L251.245 306.652C252.261 306.097 253.096 305.261 253.652 304.245L254.269 303.118C254.355 302.961 254.58 302.961 254.666 303.118L255.282 304.245C255.838 305.261 256.673 306.096 257.69 306.652L258.817 307.269C258.973 307.355 258.973 307.58 258.817 307.666L257.69 308.282C256.673 308.838 255.838 309.674 255.282 310.69L254.666 311.817C254.58 311.973 254.355 311.973 254.269 311.817L253.652 310.69C253.097 309.674 252.261 308.838 251.245 308.282L250.118 307.666C249.961 307.58 249.961 307.355 250.118 307.269Z" fill="#C9B365"/>
</g>
<g id="Group_26">
<path id="stea_15" d="M67.1175 122.269L68.2451 121.652C69.2608 121.097 70.0962 120.26 70.6523 119.245L71.2686 118.118C71.3546 117.961 71.5797 117.961 71.6657 118.118L72.2824 119.245C72.8377 120.26 73.673 121.096 74.6896 121.652L75.8167 122.269C75.9735 122.354 75.9735 122.579 75.8167 122.665L74.6896 123.282C73.6735 123.837 72.8381 124.674 72.2824 125.689L71.6657 126.816C71.5797 126.973 71.3546 126.973 71.2686 126.816L70.6523 125.689C70.0971 124.674 69.2608 123.838 68.2451 123.282L67.1175 122.665C66.9608 122.579 66.9608 122.354 67.1175 122.269Z" fill="#C9B365"/>
</g>
<g id="Group_28">
<path id="stea_17" d="M259.097 410.525L260.031 410.016C260.868 409.557 261.557 408.867 262.019 408.028L262.527 407.097C262.597 406.968 262.782 406.968 262.856 407.097L263.364 408.028C263.822 408.867 264.511 409.557 265.352 410.016L266.281 410.525C266.411 410.596 266.411 410.782 266.281 410.853L265.352 411.362C264.511 411.821 263.822 412.511 263.364 413.35L262.856 414.281C262.782 414.411 262.597 414.411 262.527 414.281L262.019 413.35C261.557 412.511 260.868 411.821 260.031 411.362L259.097 410.853C258.968 410.782 258.968 410.596 259.097 410.525Z" fill="#C9B365"/>
</g>
<g id="Group_29">
<path id="stea_18" d="M63.8754 633.591L64.8065 633.081C65.6456 632.622 66.3353 631.933 66.7944 631.094L67.3034 630.162C67.3741 630.032 67.5604 630.032 67.6312 630.162L68.1402 631.094C68.5992 631.933 69.289 632.622 70.1286 633.081L71.0592 633.591C71.1891 633.662 71.1891 633.848 71.0592 633.919L70.1286 634.428C69.289 634.887 68.5992 635.577 68.1402 636.416L67.6312 637.346C67.5604 637.476 67.3741 637.476 67.3034 637.346L66.7944 636.416C66.3353 635.577 65.6456 634.887 64.8065 634.428L63.8754 633.919C63.746 633.848 63.746 633.662 63.8754 633.591Z" fill="#C9B365"/>
</g>
<g id="Group_30">
<path id="stea_19" d="M368.097 270.525L369.028 270.016C369.867 269.557 370.557 268.868 371.016 268.028L371.525 267.097C371.596 266.968 371.782 266.968 371.853 267.097L372.362 268.028C372.821 268.868 373.511 269.557 374.35 270.016L375.281 270.525C375.411 270.596 375.411 270.782 375.281 270.853L374.35 271.362C373.511 271.821 372.821 272.511 372.362 273.35L371.853 274.281C371.782 274.411 371.596 274.411 371.525 274.281L371.016 273.35C370.557 272.511 369.867 271.821 369.028 271.362L368.097 270.853C367.968 270.782 367.968 270.596 368.097 270.525Z" fill="#C9B365"/>
</g>
<g id="Group_31">
<path id="stea_20" d="M211.305 506.712L211.818 506.433C212.276 506.181 212.655 505.803 212.909 505.343L213.187 504.832C213.228 504.761 213.33 504.761 213.367 504.832L213.644 505.343C213.899 505.803 214.278 506.181 214.735 506.433L215.248 506.712C215.318 506.751 215.318 506.852 215.248 506.892L214.735 507.171C214.278 507.422 213.899 507.801 213.644 508.261L213.367 508.772C213.33 508.842 213.228 508.842 213.187 508.772L212.909 508.261C212.655 507.801 212.276 507.423 211.818 507.171L211.305 506.892C211.236 506.852 211.236 506.751 211.305 506.712Z" fill="#C9B365"/>
</g>
<g id="Group_32">
<path id="stea_21" d="M265.052 434.933L265.565 434.654C266.023 434.402 266.402 434.024 266.656 433.564L266.934 433.053C266.975 432.982 267.077 432.982 267.114 433.053L267.391 433.564C267.646 434.024 268.025 434.402 268.482 434.654L268.995 434.933C269.065 434.972 269.065 435.074 268.995 435.113L268.482 435.392C268.025 435.644 267.646 436.022 267.391 436.482L267.114 436.993C267.077 437.063 266.975 437.063 266.934 436.993L266.656 436.482C266.402 436.022 266.023 435.644 265.565 435.392L265.052 435.113C264.983 435.074 264.983 434.972 265.052 434.933Z" fill="#C9B365"/>
</g>
<g id="Group_25">
<path id="stea_14" d="M125.118 205.269L126.245 204.652C127.261 204.097 128.096 203.261 128.652 202.245L129.269 201.118C129.355 200.961 129.58 200.961 129.666 201.118L130.282 202.245C130.838 203.261 131.673 204.096 132.69 204.652L133.817 205.269C133.973 205.355 133.973 205.58 133.817 205.666L132.69 206.282C131.673 206.838 130.838 207.674 130.282 208.69L129.666 209.817C129.58 209.973 129.355 209.973 129.269 209.817L128.652 208.69C128.097 207.674 127.261 206.838 126.245 206.282L125.118 205.666C124.961 205.58 124.961 205.355 125.118 205.269Z" fill="#C9B365"/>
</g>
<g id="Group_27">
<path id="stea_16" d="M113.118 288.269L114.245 287.652C115.261 287.097 116.096 286.26 116.652 285.245L117.269 284.118C117.355 283.961 117.58 283.961 117.666 284.118L118.282 285.245C118.838 286.26 119.673 287.096 120.69 287.652L121.817 288.269C121.973 288.354 121.973 288.579 121.817 288.665L120.69 289.282C119.673 289.837 118.838 290.674 118.282 291.689L117.666 292.816C117.58 292.973 117.355 292.973 117.269 292.816L116.652 291.689C116.097 290.674 115.261 289.838 114.245 289.282L113.118 288.665C112.961 288.579 112.961 288.354 113.118 288.269Z" fill="#C9B365"/>
</g>
</g>
</g>
<path id="moon" d="M21.6431 188.49C24.1361 187.389 26.7452 186.92 29.2899 187.011C24.9498 192.08 23.5871 199.43 26.39 206.01C29.193 212.59 35.3995 216.6 42 216.835C40.3273 218.79 38.2089 220.406 35.716 221.508C26.7582 225.465 16.3473 221.28 12.4658 212.163C8.57785 203.045 12.6918 192.447 21.6431 188.49Z" fill="#C9B365"/>
</g>
</g>
<defs>
<radialGradient id="paint0_radial_239_7" cx="0" cy="0" r="1" gradientUnits="userSpaceOnUse" gradientTransform="translate(250 499.999) scale(361.701 723.399)">
<stop stop-color="white"/>
<stop offset="0.3674" stop-color="#FBFBFB"/>
<stop offset="0.7532" stop-color="#F0EFEE"/>
<stop offset="1" stop-color="#E6E4E2"/>
</radialGradient>
<radialGradient id="paint1_radial_239_7" cx="0" cy="0" r="1" gradientUnits="userSpaceOnUse" gradientTransform="translate(250 499.999) scale(361.701 723.399)">
<stop stop-color="white"/>
<stop offset="0.3674" stop-color="#FBFBFB"/>
<stop offset="0.7532" stop-color="#F0EFEE"/>
<stop offset="1" stop-color="#E6E4E2"/>
</radialGradient>
<radialGradient id="paint2_radial_239_7" cx="0" cy="0" r="1" gradientUnits="userSpaceOnUse" gradientTransform="translate(93.5479 831.616) rotate(-90) scale(89.1548 180.912)">
<stop offset="0.0081" stop-color="#525C12"/>
<stop offset="1" stop-color="#556613"/>
</radialGradient>
<radialGradient id="paint3_radial_239_7" cx="0" cy="0" r="1" gradientUnits="userSpaceOnUse" gradientTransform="translate(214.645 841.102) rotate(-90) scale(111.126 225.496)">
<stop offset="0.0081" stop-color="#525C12"/>
<stop offset="1" stop-color="#556613"/>
</radialGradient>
<radialGradient id="paint4_radial_239_7" cx="0" cy="0" r="1" gradientUnits="userSpaceOnUse" gradientTransform="translate(370.859 775.529) scale(82.9575 82.9582)">
<stop offset="0.0081" stop-color="#525C12"/>
<stop offset="1" stop-color="#556613"/>
</radialGradient>
<linearGradient id="paint5_linear_239_7" x1="481.516" y1="313.209" x2="377.146" y2="382.273" gradientUnits="userSpaceOnUse">
<stop stop-color="#C9B365" stop-opacity="0"/>
<stop offset="0.6568" stop-color="#C9B365" stop-opacity="0.5"/>
<stop offset="0.7781" stop-color="#C9B365" stop-opacity="0.6768"/>
<stop offset="0.9767" stop-color="#C9B365" stop-opacity="0.966"/>
<stop offset="1" stop-color="#C9B365"/>
</linearGradient>
<linearGradient id="paint6_linear_239_7" x1="444.999" y1="374.458" x2="319.057" y2="457.94" gradientUnits="userSpaceOnUse">
<stop stop-color="#C9B365" stop-opacity="0"/>
<stop offset="0.6568" stop-color="#C9B365" stop-opacity="0.76"/>
<stop offset="0.7781" stop-color="#C9B365" stop-opacity="0.6768"/>
<stop offset="0.9767" stop-color="#C9B365" stop-opacity="0.966"/>
<stop offset="1" stop-color="#C9B365"/>
</linearGradient>
<linearGradient id="paint7_linear_239_7" x1="498.404" y1="411.782" x2="431.011" y2="456.137" gradientUnits="userSpaceOnUse">
<stop stop-color="#C9B365" stop-opacity="0"/>
<stop offset="0.6568" stop-color="#C9B365" stop-opacity="0.5"/>
<stop offset="0.7781" stop-color="#C9B365" stop-opacity="0.6768"/>
<stop offset="0.9767" stop-color="#C9B365" stop-opacity="0.966"/>
<stop offset="1" stop-color="#C9B365"/>
</linearGradient>
<clipPath id="clip0_239_7">
<rect width="500" height="1000" fill="white"/>
</clipPath>
</defs>
</svg>
