<svg width="1920" height="1080" fill="none" xmlns="http://www.w3.org/2000/svg">
<g id="egypt_bg">
<g id="BACKGROUND Oficial">
<path id="bg_3" d="M1920 0H0V1077.01H1920V0Z" fill="url(#paint0_radial_84_234)"/>
<path id="bg_2" d="M1920 0H0V1077.01H1920V0Z" fill="url(#paint1_radial_84_234)"/>
<path id="bg_1" d="M1920 0H0V1077.01H1920V0Z" fill="#01334A"/>
</g>
<g id="OBJECTS">
<path id="fum" d="M1841.8 628.546C1841.8 633.331 1842.13 638.02 1842.74 642.617C1825.93 631.446 1806.89 628.996 1791.86 638.059C1773.22 649.307 1766.18 675.022 1772.27 701.661C1746.14 684.666 1712.42 674.399 1675.59 674.399C1602.36 674.399 1541.41 714.906 1528.11 768.503C1519.83 762.925 1509.95 759.667 1499.36 759.667C1489.12 759.667 1479.55 762.702 1471.45 767.937C1465.12 745.853 1449.76 727.873 1429.86 718.653V694.072C1402.61 663.451 1363.7 644.294 1320.52 644.294C1259.99 644.294 1207.89 681.95 1184.42 736.071C1166.52 721.399 1144.88 717.133 1128.24 727.181C1119.73 732.316 1113.69 740.514 1110.22 750.442C1107.83 753.843 1105.89 757.609 1104.51 761.663C1100.49 754.224 1094.44 749.473 1087.66 749.473C1078.62 749.473 1070.83 757.97 1067.48 770.065C1062.08 767.183 1055.97 765.56 1049.5 765.56C1039.46 765.56 1030.32 769.495 1023.33 775.935C1009.25 778.835 996.205 783.682 984.701 790.091C975.6 785.54 965.612 781.963 954.949 779.593C947.322 768.66 935.011 761.525 921.08 761.525C914.237 761.525 907.774 763.24 902.053 766.291C898.508 753.493 890.272 744.503 880.698 744.503C876.24 744.503 872.078 746.449 868.545 749.815C865.143 742.81 860.193 737.009 853.719 733.101C847.118 729.116 839.683 727.542 832.03 728.05C828.571 727.138 824.949 726.642 821.217 726.642C812.324 726.642 804.056 729.416 797.125 734.147C773.555 686.99 726.404 654.761 671.991 654.761C631.18 654.761 594.408 672.868 568.657 701.804V706.962C562.908 705.581 556.952 704.769 550.801 704.769C514.828 704.769 484.438 729.747 474.619 764.033C466.041 758.49 455.918 755.281 445.09 755.281C433.881 755.281 423.432 758.728 414.662 764.629C400.592 707.916 336.095 665.059 258.616 665.059C219.648 665.059 183.959 675.922 156.315 693.906C162.758 665.717 155.305 638.509 135.59 626.607C119.689 617.021 99.5403 619.61 81.7496 631.431C82.3986 626.568 82.7403 621.602 82.7403 616.54C82.7403 563.835 47.3164 519.778 0 508.996V834.998H568.653H1429.85H1920V526.895C1875.28 537.096 1841.8 578.73 1841.8 628.546Z" fill="#2C2B01"/>
<path id="atreia_duna" d="M1920 779.998H0V1080H1920V779.998Z" fill="#706C04"/>
<path id="adoua_duna" d="M0 815.998H1023.97C1095.79 815.998 1167.34 819.943 1237.03 827.744L1466.23 853.404C1501.79 857.385 1539.12 856.81 1573.99 851.747L1706.45 832.512C1778.32 822.073 1856.89 826.834 1920 845.448V1078H0V815.998Z" fill="#646004"/>
<path id="Vector" d="M756.29 845.737C756.868 843.934 758.029 841.924 759.814 841.11C761.335 840.415 762.166 839.99 763.887 839.998C765.938 840.009 767.927 840.841 769.386 842.299C770.944 843.855 771.785 846.007 771.794 848.21C771.802 850.409 770.947 852.574 769.397 854.124C767.941 855.58 765.952 856.416 763.897 856.427C762.12 856.435 761.404 856.002 759.822 855.319C758.182 854.611 756.747 852.338 756.298 850.691C756.13 850.074 756.075 849.382 756.073 848.68C755.937 847.699 755.982 846.696 756.29 845.737Z" fill="#474210"/>
<path id="Vector_2" d="M1664.29 931.738C1664.87 929.934 1666.03 927.924 1667.81 927.111C1669.33 926.415 1670.17 925.99 1671.89 925.999C1673.94 926.009 1675.93 926.842 1677.39 928.3C1678.94 929.855 1679.79 932.008 1679.79 934.211C1679.8 936.41 1678.95 938.575 1677.4 940.125C1675.94 941.581 1673.95 942.417 1671.9 942.427C1670.12 942.436 1669.4 942.002 1667.82 941.319C1666.18 940.612 1664.75 938.339 1664.3 936.692C1664.13 936.074 1664.07 935.382 1664.07 934.68C1663.94 933.699 1663.98 932.696 1664.29 931.738Z" fill="#474210"/>
<g id="piramida_2">
<path id="Vector_3" d="M1151.64 683.997L1062.28 806.211H1036L1151.64 683.997Z" fill="url(#paint2_radial_84_234)"/>
<g id="Group">
<path id="Vector_4" d="M1128.51 716.493H1125.64C1124.54 716.493 1124.53 718.194 1125.64 718.194H1128.51C1129.62 718.194 1129.62 716.493 1128.51 716.493Z" fill="#46470E"/>
<path id="Vector_5" d="M1100.81 752.853H1096.22C1095.11 752.853 1095.11 754.555 1096.22 754.555H1100.81C1101.91 754.555 1101.91 752.853 1100.81 752.853Z" fill="#46470E"/>
<path id="Vector_6" d="M1068.3 797.952H1056.26C1055.15 797.952 1055.15 799.653 1056.26 799.653H1068.3C1069.41 799.655 1069.41 797.952 1068.3 797.952Z" fill="#46470E"/>
<path id="Vector_7" d="M1101.95 739.233H1099.09C1097.98 739.233 1097.98 740.935 1099.09 740.935H1101.95C1103.06 740.935 1103.06 739.233 1101.95 739.233Z" fill="#46470E"/>
<path id="Vector_8" d="M1121.66 723.343H1119.94C1118.83 723.343 1118.83 725.045 1119.94 725.045H1121.66C1122.77 725.045 1122.77 723.343 1121.66 723.343Z" fill="#46470E"/>
<path id="Vector_9" d="M1084.46 762.216H1079.3C1078.19 762.216 1078.19 763.918 1079.3 763.918H1084.46C1085.57 763.918 1085.57 762.216 1084.46 762.216Z" fill="#46470E"/>
<path id="Vector_10" d="M1054.6 788.487H1051.16C1050.05 788.487 1050.05 790.189 1051.16 790.189H1054.6C1055.7 790.191 1055.71 788.487 1054.6 788.487Z" fill="#46470E"/>
<path id="Vector_11" d="M1075.05 781.511H1068.74C1067.64 781.511 1067.63 783.213 1068.74 783.213H1075.05C1076.16 783.213 1076.16 781.511 1075.05 781.511Z" fill="#46470E"/>
<path id="Vector_12" d="M1084.49 779.24H1080.47C1079.37 779.24 1079.36 780.942 1080.47 780.942H1084.49C1085.59 780.943 1085.6 779.24 1084.49 779.24Z" fill="#46470E"/>
</g>
<path id="Vector_13" d="M1151.64 683.997L1284.37 806.211H1062.28L1151.64 683.997Z" fill="#707215"/>
<g id="Group_2">
<path id="Vector_14" d="M1163.35 748.685H1172.81C1173.92 748.685 1173.92 750.406 1172.81 750.406H1163.35C1162.24 750.406 1162.24 748.685 1163.35 748.685Z" fill="#595611"/>
<path id="Vector_15" d="M1121.63 726.315H1142.28C1143.39 726.315 1143.39 728.036 1142.28 728.036H1121.63C1120.52 728.036 1120.52 726.315 1121.63 726.315Z" fill="#595611"/>
<path id="Vector_16" d="M1171.2 711.688H1183.25C1184.36 711.688 1184.36 713.409 1183.25 713.409H1171.2C1170.1 713.409 1170.09 711.688 1171.2 711.688Z" fill="#595611"/>
<path id="Vector_17" d="M1144.77 690.393H1152.52C1153.62 690.393 1153.63 692.114 1152.52 692.114H1144.77C1143.67 692.114 1143.66 690.393 1144.77 690.393Z" fill="#595611"/>
<path id="Vector_18" d="M1216.39 772.991H1225.85C1226.96 772.991 1226.96 774.712 1225.85 774.712H1216.39C1215.28 774.712 1215.28 772.991 1216.39 772.991Z" fill="#595611"/>
<path id="Vector_19" d="M1181.43 771.656H1202.94C1204.04 771.656 1204.05 773.377 1202.94 773.377H1181.43C1180.32 773.377 1180.32 771.656 1181.43 771.656Z" fill="#595611"/>
<path id="Vector_20" d="M1174.54 793.426H1196.05C1197.16 793.426 1197.16 795.147 1196.05 795.147H1174.54C1173.44 795.147 1173.44 793.426 1174.54 793.426Z" fill="#595611"/>
<path id="Vector_21" d="M1111.31 798.588H1128.51C1129.62 798.588 1129.62 800.309 1128.51 800.309H1111.31C1110.2 800.309 1110.2 798.588 1111.31 798.588Z" fill="#595611"/>
<path id="Vector_22" d="M1094.07 783.101H1106.97C1108.08 783.101 1108.08 784.822 1106.97 784.822H1094.07C1092.96 784.822 1092.96 783.101 1094.07 783.101Z" fill="#595611"/>
<path id="Vector_23" d="M1124.33 767.829H1146.7C1147.8 767.829 1147.81 769.55 1146.7 769.55H1124.33C1123.22 769.55 1123.22 767.829 1124.33 767.829Z" fill="#595611"/>
<path id="Vector_24" d="M1118.19 749.546H1128.51C1129.62 749.546 1129.62 751.266 1128.51 751.266H1118.19C1117.08 751.266 1117.08 749.546 1118.19 749.546Z" fill="#595611"/>
<path id="Vector_25" d="M1160.26 704.805H1165.42C1166.53 704.805 1166.53 706.526 1165.42 706.526H1160.26C1159.15 706.526 1159.15 704.805 1160.26 704.805Z" fill="#595611"/>
<path id="Vector_26" d="M1077.72 799.376H1090.63C1091.73 799.376 1091.74 801.097 1090.63 801.097H1077.72C1076.61 801.097 1076.61 799.376 1077.72 799.376Z" fill="#595611"/>
<path id="Vector_27" d="M1211.68 753.632H1228.89C1230 753.632 1230 755.353 1228.89 755.353H1211.68C1210.58 755.353 1210.58 753.632 1211.68 753.632Z" fill="#595611"/>
<path id="Vector_28" d="M1203.73 738.749H1208.03C1209.14 738.749 1209.14 740.47 1208.03 740.47H1203.73C1202.62 740.47 1202.62 738.749 1203.73 738.749Z" fill="#595611"/>
<path id="Vector_29" d="M1239.44 787.546H1253.21C1254.32 787.546 1254.32 789.267 1253.21 789.267H1239.44C1238.34 789.267 1238.34 787.546 1239.44 787.546Z" fill="#595611"/>
<path id="Vector_30" d="M1236.86 793.999H1242.03C1243.13 793.999 1243.14 795.72 1242.03 795.72H1236.86C1235.76 795.72 1235.76 793.999 1236.86 793.999Z" fill="#595611"/>
</g>
</g>
<g id="piramida_1">
<path id="Vector_31" d="M1298.97 811.833L1392.56 630.997L1573.36 811.833H1298.97Z" fill="#707215"/>
<g id="Group_3">
<path id="Vector_32" d="M1418.47 746.349H1409.01C1407.9 746.349 1407.9 748.069 1409.01 748.069H1418.47C1419.58 748.069 1419.58 746.349 1418.47 746.349Z" fill="#595611"/>
<path id="Vector_33" d="M1449.39 717.525H1428.74C1427.63 717.525 1427.63 719.246 1428.74 719.246H1449.39C1450.49 719.246 1450.5 717.525 1449.39 717.525Z" fill="#595611"/>
<path id="Vector_34" d="M1466.59 716.665H1457.13C1456.02 716.665 1456.02 718.386 1457.13 718.386H1466.59C1467.7 718.386 1467.7 716.665 1466.59 716.665Z" fill="#595611"/>
<path id="Vector_35" d="M1430.49 702.898H1418.44C1417.34 702.898 1417.33 704.619 1418.44 704.619H1430.49C1431.59 704.619 1431.6 702.898 1430.49 702.898Z" fill="#595611"/>
<path id="Vector_36" d="M1452.4 689.619H1442.93C1441.83 689.619 1441.82 691.34 1442.93 691.34H1452.4C1453.5 691.34 1453.51 689.619 1452.4 689.619Z" fill="#595611"/>
<path id="Vector_37" d="M1414.11 680.528H1400.34C1399.24 680.528 1399.23 682.249 1400.34 682.249H1414.11C1415.22 682.249 1415.22 680.528 1414.11 680.528Z" fill="#595611"/>
<path id="Vector_38" d="M1411.1 654.286H1403.36C1402.25 654.286 1402.25 656.007 1403.36 656.007H1411.1C1412.21 656.007 1412.21 654.286 1411.1 654.286Z" fill="#595611"/>
<path id="Vector_39" d="M1359.53 734.303H1350.07C1348.96 734.303 1348.96 736.024 1350.07 736.024H1359.53C1360.64 736.024 1360.64 734.303 1359.53 734.303Z" fill="#595611"/>
<path id="Vector_40" d="M1362.55 767.858H1341.04C1339.93 767.858 1339.93 769.579 1341.04 769.579H1362.55C1363.65 769.579 1363.65 767.858 1362.55 767.858Z" fill="#595611"/>
<path id="Vector_41" d="M1396.47 784.636H1374.96C1373.86 784.636 1373.85 786.357 1374.96 786.357H1396.47C1397.58 786.357 1397.58 784.636 1396.47 784.636Z" fill="#595611"/>
<path id="Vector_42" d="M1459.71 789.799H1442.5C1441.4 789.799 1441.39 791.519 1442.5 791.519H1459.71C1460.82 791.519 1460.82 789.799 1459.71 789.799Z" fill="#595611"/>
<path id="Vector_43" d="M1476.95 774.311H1464.04C1462.94 774.311 1462.93 776.032 1464.04 776.032H1476.95C1478.06 776.032 1478.06 774.311 1476.95 774.311Z" fill="#595611"/>
<path id="Vector_44" d="M1450.28 768.289H1427.91C1426.8 768.289 1426.8 770.009 1427.91 770.009H1450.28C1451.38 770.009 1451.39 768.289 1450.28 768.289Z" fill="#595611"/>
<path id="Vector_45" d="M1500.18 757.103H1484.69C1483.59 757.103 1483.58 758.824 1484.69 758.824H1500.18C1501.29 758.824 1501.29 757.103 1500.18 757.103Z" fill="#595611"/>
<path id="Vector_46" d="M1495.02 728.71H1484.69C1483.59 728.71 1483.58 730.431 1484.69 730.431H1495.02C1496.12 730.431 1496.13 728.71 1495.02 728.71Z" fill="#595611"/>
<path id="Vector_47" d="M1452.83 740.756H1442.5C1441.4 740.756 1441.39 742.477 1442.5 742.477H1452.83C1453.94 742.477 1453.94 740.756 1452.83 740.756Z" fill="#595611"/>
<path id="Vector_48" d="M1410.76 696.015H1405.59C1404.49 696.015 1404.48 697.736 1405.59 697.736H1410.76C1411.86 697.736 1411.87 696.015 1410.76 696.015Z" fill="#595611"/>
<path id="Vector_49" d="M1515.67 783.776H1492.44C1491.33 783.776 1491.33 785.497 1492.44 785.497H1515.67C1516.77 785.497 1516.78 783.776 1515.67 783.776Z" fill="#595611"/>
<path id="Vector_50" d="M1493.3 800.123H1480.39C1479.28 800.123 1479.28 801.844 1480.39 801.844H1493.3C1494.4 801.844 1494.41 800.123 1493.3 800.123Z" fill="#595611"/>
<path id="Vector_51" d="M1412.48 799.263H1403.87C1402.77 799.263 1402.76 800.984 1403.87 800.984H1412.48C1413.58 800.984 1413.59 799.263 1412.48 799.263Z" fill="#595611"/>
<path id="Vector_52" d="M1364.24 714.944H1347.03C1345.92 714.944 1345.92 716.665 1347.03 716.665H1364.24C1365.34 716.665 1365.35 714.944 1364.24 714.944Z" fill="#595611"/>
<path id="Vector_53" d="M1366.39 700.747H1353.05C1351.95 700.747 1351.94 702.468 1353.05 702.468H1366.39C1367.49 702.468 1367.5 700.747 1366.39 700.747Z" fill="#595611"/>
<path id="Vector_54" d="M1375.85 700.317H1371.55C1370.44 700.317 1370.44 702.038 1371.55 702.038H1375.85C1376.96 702.038 1376.96 700.317 1375.85 700.317Z" fill="#595611"/>
<path id="Vector_55" d="M1378 674.505H1368.11C1367 674.505 1367 676.226 1368.11 676.226H1378C1379.11 676.226 1379.11 674.505 1378 674.505Z" fill="#595611"/>
<path id="Vector_56" d="M1384.89 668.483H1378C1376.9 668.483 1376.89 670.203 1378 670.203H1384.89C1385.99 670.203 1386 668.483 1384.89 668.483Z" fill="#595611"/>
<path id="Vector_57" d="M1334.98 787.648H1321.22C1320.11 787.648 1320.11 789.368 1321.22 789.368H1334.98C1336.09 789.368 1336.09 787.648 1334.98 787.648Z" fill="#595611"/>
<path id="Vector_58" d="M1337.57 794.101H1332.4C1331.3 794.101 1331.29 795.822 1332.4 795.822H1337.57C1338.67 795.822 1338.67 794.101 1337.57 794.101Z" fill="#595611"/>
<path id="Vector_59" d="M1394.32 726.99H1384C1382.89 726.99 1382.89 728.71 1384 728.71H1394.32C1395.43 728.71 1395.43 726.99 1394.32 726.99Z" fill="#595611"/>
</g>
<path id="Vector_60" d="M1392.56 630.997L1298.97 811.833H1226L1392.56 630.997Z" fill="url(#paint3_radial_84_234)"/>
<g id="Group_4">
<path id="Vector_61" d="M1345.88 689.992H1334.41C1333.3 689.992 1333.3 691.713 1334.41 691.713H1345.88C1346.99 691.713 1346.99 689.992 1345.88 689.992Z" fill="#46470E"/>
<path id="Vector_62" d="M1357.93 688.845H1355.06C1353.95 688.845 1353.95 690.565 1355.06 690.565H1357.93C1359.04 690.565 1359.04 688.845 1357.93 688.845Z" fill="#46470E"/>
<path id="Vector_63" d="M1357.35 673.357H1352.19C1351.09 673.357 1351.08 675.078 1352.19 675.078H1357.35C1358.46 675.078 1358.46 673.357 1357.35 673.357Z" fill="#46470E"/>
<path id="Vector_64" d="M1362.52 667.049H1357.35C1356.25 667.049 1356.24 668.77 1357.35 668.77H1362.52C1363.62 668.77 1363.63 667.049 1362.52 667.049Z" fill="#46470E"/>
<path id="Vector_65" d="M1382.59 655.003H1375.14C1374.03 655.003 1374.03 656.724 1375.14 656.724H1382.59C1383.7 656.724 1383.7 655.003 1382.59 655.003Z" fill="#46470E"/>
<path id="Vector_66" d="M1338.11 740.756H1333.52C1332.41 740.756 1332.41 742.477 1333.52 742.477H1338.11C1339.22 742.477 1339.22 740.756 1338.11 740.756Z" fill="#46470E"/>
<path id="Vector_67" d="M1301.17 755.383H1296.01C1294.9 755.383 1294.9 757.103 1296.01 757.103H1301.17C1302.28 757.103 1302.28 755.383 1301.17 755.383Z" fill="#46470E"/>
<path id="Vector_68" d="M1329.25 720.394H1317.2C1316.1 720.394 1316.09 722.114 1317.2 722.114H1329.25C1330.36 722.114 1330.36 720.394 1329.25 720.394Z" fill="#46470E"/>
<path id="Vector_69" d="M1334.41 726.129H1331.54C1330.44 726.129 1330.43 727.85 1331.54 727.85H1334.41C1335.52 727.85 1335.52 726.129 1334.41 726.129Z" fill="#46470E"/>
<path id="Vector_70" d="M1330.39 703.186H1324.66C1323.55 703.186 1323.55 704.906 1324.66 704.906H1330.39C1331.5 704.906 1331.5 703.186 1330.39 703.186Z" fill="#46470E"/>
<path id="Vector_71" d="M1349.9 706.052H1348.18C1347.07 706.052 1347.07 707.773 1348.18 707.773H1349.9C1351 707.773 1351.01 706.052 1349.9 706.052Z" fill="#46470E"/>
<path id="Vector_72" d="M1300 737.027H1293.11C1292.01 737.027 1292 738.748 1293.11 738.748H1300C1301.1 738.748 1301.1 737.027 1300 737.027Z" fill="#46470E"/>
<path id="Vector_73" d="M1273.61 780.047H1259.27C1258.16 780.047 1258.16 781.768 1259.27 781.768H1273.61C1274.72 781.768 1274.72 780.047 1273.61 780.047Z" fill="#46470E"/>
<path id="Vector_74" d="M1282.21 786.357H1277.05C1275.94 786.357 1275.94 788.078 1277.05 788.078H1282.21C1283.32 788.078 1283.32 786.357 1282.21 786.357Z" fill="#46470E"/>
<path id="Vector_75" d="M1281.07 769.722H1277.63C1276.52 769.722 1276.52 771.443 1277.63 771.443H1281.07C1282.17 771.443 1282.18 769.722 1281.07 769.722Z" fill="#46470E"/>
<path id="Vector_76" d="M1254.11 797.255H1237.47C1236.37 797.255 1236.36 798.976 1237.47 798.976H1254.11C1255.21 798.976 1255.22 797.255 1254.11 797.255Z" fill="#46470E"/>
<path id="Vector_77" d="M1254.68 804.138H1250.09C1248.98 804.138 1248.98 805.859 1250.09 805.859H1254.68C1255.79 805.859 1255.79 804.138 1254.68 804.138Z" fill="#46470E"/>
<path id="Vector_78" d="M1304.01 803.565H1285.08C1283.98 803.565 1283.97 805.286 1285.08 805.286H1304.01C1305.12 805.286 1305.12 803.565 1304.01 803.565Z" fill="#46470E"/>
<path id="Vector_79" d="M1318.35 774.311H1312.04C1310.93 774.311 1310.93 776.032 1312.04 776.032H1318.35C1319.46 776.032 1319.46 774.311 1318.35 774.311Z" fill="#46470E"/>
<path id="Vector_80" d="M1321.79 767.428H1317.78C1316.67 767.428 1316.67 769.149 1317.78 769.149H1321.79C1322.9 769.149 1322.9 767.428 1321.79 767.428Z" fill="#46470E"/>
</g>
</g>
<g id="piramida_3">
<path id="Vector_81" d="M1615.45 720.997L1577.81 809.362H1714.83L1615.45 720.997Z" fill="#707215"/>
<g id="Group_5">
<path id="Vector_82" d="M1582.94 800.233H1592.41C1593.51 800.233 1593.52 798.512 1592.41 798.512H1582.94C1581.84 798.512 1581.83 800.233 1582.94 800.233Z" fill="#46470E"/>
<path id="Vector_83" d="M1605.71 744.481H1626.36C1627.47 744.481 1627.47 742.76 1626.36 742.76H1605.71C1604.61 742.76 1604.6 744.481 1605.71 744.481Z" fill="#46470E"/>
<path id="Vector_84" d="M1628.02 755.492H1640.07C1641.18 755.492 1641.18 753.771 1640.07 753.771H1628.02C1626.92 753.771 1626.91 755.492 1628.02 755.492Z" fill="#46470E"/>
<path id="Vector_85" d="M1602.7 772.385H1612.17C1613.27 772.385 1613.28 770.665 1612.17 770.665H1602.7C1601.6 770.665 1601.59 772.385 1602.7 772.385Z" fill="#46470E"/>
<path id="Vector_86" d="M1621.14 792.663H1634.91C1636.01 792.663 1636.02 790.943 1634.91 790.943H1621.14C1620.03 790.943 1620.03 792.663 1621.14 792.663Z" fill="#46470E"/>
<path id="Vector_87" d="M1648.7 801.093H1656.45C1657.55 801.093 1657.56 799.373 1656.45 799.373H1648.7C1647.6 799.373 1647.6 801.093 1648.7 801.093Z" fill="#46470E"/>
<path id="Vector_88" d="M1657.37 765.387H1662.53C1663.63 765.387 1663.64 763.666 1662.53 763.666H1657.37C1656.26 763.666 1656.26 765.387 1657.37 765.387Z" fill="#46470E"/>
<path id="Vector_89" d="M1610.85 734.156H1615.15C1616.25 734.156 1616.26 732.435 1615.15 732.435H1610.85C1609.74 732.435 1609.74 734.156 1610.85 734.156Z" fill="#46470E"/>
<path id="Vector_90" d="M1679.43 786.64H1689.33C1690.43 786.64 1690.44 784.92 1689.33 784.92H1679.43C1678.33 784.92 1678.32 786.64 1679.43 786.64Z" fill="#46470E"/>
<path id="Vector_91" d="M1691.94 793.524H1698.82C1699.93 793.524 1699.93 791.803 1698.82 791.803H1691.94C1690.83 791.803 1690.83 793.524 1691.94 793.524Z" fill="#46470E"/>
<path id="Vector_92" d="M1585.09 786.64H1590.26C1591.36 786.64 1591.37 784.92 1590.26 784.92H1585.09C1583.99 784.92 1583.98 786.64 1585.09 786.64Z" fill="#46470E"/>
<path id="Vector_93" d="M1638.29 777.863H1648.62C1649.72 777.863 1649.73 776.142 1648.62 776.142H1638.29C1637.18 776.142 1637.18 777.863 1638.29 777.863Z" fill="#46470E"/>
</g>
<path id="Vector_94" d="M1615.45 720.997L1577.81 809.362H1532L1615.45 720.997Z" fill="url(#paint4_radial_84_234)"/>
<g id="Group_6">
<path id="Vector_95" d="M1611.45 731.575H1608.58C1607.47 731.575 1607.47 733.277 1608.58 733.277H1611.45C1612.56 733.277 1612.56 731.575 1611.45 731.575Z" fill="#595611"/>
<path id="Vector_96" d="M1594.9 776.519H1590.31C1589.2 776.519 1589.2 778.221 1590.31 778.221H1594.9C1596.01 778.221 1596.01 776.519 1594.9 776.519Z" fill="#595611"/>
<path id="Vector_97" d="M1557.96 790.989H1552.8C1551.69 790.989 1551.69 792.691 1552.8 792.691H1557.96C1559.07 792.691 1559.07 790.989 1557.96 790.989Z" fill="#595611"/>
<path id="Vector_98" d="M1592.89 755.522H1580.85C1579.74 755.522 1579.74 757.224 1580.85 757.224H1592.89C1594 757.224 1594 755.522 1592.89 755.522Z" fill="#595611"/>
<path id="Vector_99" d="M1591.2 762.047H1588.33C1587.23 762.047 1587.22 763.749 1588.33 763.749H1591.2C1592.31 763.749 1592.31 762.047 1591.2 762.047Z" fill="#595611"/>
<path id="Vector_100" d="M1595.47 747.009H1589.74C1588.63 747.009 1588.63 748.711 1589.74 748.711H1595.47C1596.58 748.711 1596.58 747.009 1595.47 747.009Z" fill="#595611"/>
<path id="Vector_101" d="M1606.69 742.186H1604.97C1603.86 742.186 1603.86 743.887 1604.97 743.887H1606.69C1607.8 743.887 1607.8 742.186 1606.69 742.186Z" fill="#595611"/>
<path id="Vector_102" d="M1567.17 775.667H1560.28C1559.18 775.667 1559.17 777.369 1560.28 777.369H1567.17C1568.28 777.369 1568.28 775.667 1567.17 775.667Z" fill="#595611"/>
<path id="Vector_103" d="M1578.55 785.882H1573.39C1572.28 785.882 1572.28 787.584 1573.39 787.584H1578.55C1579.66 787.584 1579.66 785.882 1578.55 785.882Z" fill="#595611"/>
<path id="Vector_104" d="M1537.86 805.175H1534.41C1533.31 805.175 1533.3 806.877 1534.41 806.877H1537.86C1538.96 806.879 1538.97 805.175 1537.86 805.175Z" fill="#595611"/>
<path id="Vector_105" d="M1569.15 805.175H1562.84C1561.73 805.175 1561.73 806.877 1562.84 806.877H1569.15C1570.25 806.879 1570.26 805.175 1569.15 805.175Z" fill="#595611"/>
<path id="Vector_106" d="M1578.58 802.906H1574.57C1573.46 802.906 1573.46 804.607 1574.57 804.607H1578.58C1579.69 804.609 1579.69 802.906 1578.58 802.906Z" fill="#595611"/>
</g>
</g>
<g id="cort_3">
<path id="Vector_107" d="M1041 848.815L1106.05 784.998L1080.89 848.815H1041Z" fill="url(#paint5_radial_84_234)"/>
<path id="Vector_108" d="M1106.05 784.998L1162.5 848.815H1080.89L1106.05 784.998Z" fill="#A5A732"/>
</g>
<path id="prima_duna" d="M1920 994.258V1080H0V935.235C0 935.235 374.815 929.424 1014.22 975.446C1461.22 1007.62 1920 994.258 1920 994.258Z" fill="#504E12"/>
<path id="Vector_109" d="M1737 789.991L1753 781.838C1767.86 774.266 1785.4 774.046 1800.45 781.242L1818.74 789.991H1737Z" fill="#645504"/>
<path id="Vector_110" d="M994 791.619L1005.06 785.319C1010.84 782.029 1017.98 782.251 1023.54 785.892L1032.29 791.617H994V791.619Z" fill="#644904"/>
<g id="cort_2">
<path id="Vector_111" d="M913.636 846.771H1008.13L952.907 793.998L913.636 846.771Z" fill="#A5A732"/>
<path id="Vector_112" d="M952.908 793.998L913.636 846.771H894L952.908 793.998Z" fill="url(#paint6_radial_84_234)"/>
</g>
<g id="cort_1">
<path id="Vector_113" d="M992.053 868.898H1103L1038.16 783.998L992.053 868.898Z" fill="#A5A732"/>
<path id="Vector_114" d="M1038.16 783.998L992.053 868.898H969L1038.16 783.998Z" fill="url(#paint7_radial_84_234)"/>
</g>
<path id="Vector_115" d="M0 2.9917V169.422L1919 198.993V2.9917H0ZM1006.27 76.0757L1918.03 53.1848V139.453L1006.27 76.0757Z" fill="#012F45"/>
<path id="Vector_116" d="M1772.5 390.495C1772.5 390.495 1380.18 380.17 1271.78 390.495C1271.78 390.495 1566.02 418.886 1772.5 390.495Z" fill="#042C3F"/>
<path id="Vector_117" d="M0 403.995C0 403.995 739.74 412.219 1008 443.247C1008 443.247 196.339 475.41 0 457.644V403.995Z" fill="#012F45"/>
<g id="Group_7">
<g id="Group_8">
<path id="Vector_118" d="M1120.66 997.738C1120.07 995.935 1118.9 993.925 1117.1 993.111C1115.56 992.416 1114.72 991.991 1112.98 991.999C1110.91 992.01 1108.9 992.843 1107.43 994.3C1105.86 995.856 1105.01 998.008 1105 1000.21C1104.99 1002.41 1105.86 1004.57 1107.42 1006.13C1108.89 1007.58 1110.9 1008.42 1112.98 1008.43C1114.77 1008.44 1115.49 1008 1117.09 1007.32C1118.75 1006.61 1120.19 1004.34 1120.65 1002.69C1120.82 1002.07 1120.87 1001.38 1120.88 1000.68C1121.01 999.7 1120.97 998.698 1120.66 997.738Z" fill="#474210"/>
<path id="Vector_119" d="M590.953 1039.86C590.282 1039.19 589.181 1038.68 588.216 1038.72C587.214 1038.77 586.177 1039.1 585.478 1039.86C584.783 1040.61 584.344 1041.55 584.344 1042.6V1043.17C584.344 1044.16 584.776 1045.2 585.478 1045.91C586.149 1046.58 587.252 1047.08 588.216 1047.04C589.217 1047 590.255 1046.67 590.953 1045.91C591.649 1045.15 592.087 1044.22 592.087 1043.17V1042.6C592.087 1041.6 591.655 1040.56 590.953 1039.86Z" fill="#474210"/>
<path id="Vector_120" d="M1766.22 1010.27C1764.88 1008.93 1762.67 1007.92 1760.74 1008C1758.74 1008.09 1756.66 1008.75 1755.27 1010.27C1753.88 1011.79 1753 1013.65 1753 1015.75V1016.9C1753 1018.88 1753.86 1020.97 1755.27 1022.37C1756.61 1023.72 1758.81 1024.73 1760.74 1024.64C1762.75 1024.55 1764.82 1023.89 1766.22 1022.37C1767.61 1020.86 1768.49 1018.99 1768.49 1016.9V1015.75C1768.49 1013.76 1767.62 1011.68 1766.22 1010.27Z" fill="#474210"/>
<path id="Vector_121" d="M840.844 1049C833.059 1049 833.045 1061.1 840.844 1061.1C848.63 1061.1 848.642 1049 840.844 1049Z" fill="#474210"/>
<path id="Vector_122" d="M1507.54 1036C1501.49 1036 1501.48 1045.4 1507.54 1045.4C1513.59 1045.4 1513.59 1036 1507.54 1036Z" fill="#474210"/>
<path id="Vector_123" d="M52.219 1019.4C50.8751 1018.06 48.6725 1017.05 46.7435 1017.13C44.7405 1017.22 42.6635 1017.88 41.2679 1019.4C39.8775 1020.92 38.9999 1022.78 38.9999 1024.88V1027.46C38.9999 1029.44 39.8638 1031.53 41.2679 1032.93C42.6101 1034.28 44.8145 1035.29 46.7435 1035.2C48.7465 1035.11 50.8234 1034.46 52.219 1032.93C53.6094 1031.42 54.487 1029.56 54.487 1027.46V1024.88C54.487 1022.89 53.6232 1020.81 52.219 1019.4Z" fill="#474210"/>
<path id="Vector_124" d="M481.805 960.267C480.291 958.877 478.427 957.999 476.33 957.999H473.749C471.763 957.999 469.677 958.863 468.273 960.267C466.931 961.609 465.919 963.814 466.005 965.743C466.095 967.746 466.752 969.823 468.273 971.218C469.789 972.609 471.651 973.486 473.749 973.486H476.33C478.316 973.486 480.401 972.622 481.805 971.218C483.149 969.876 484.159 967.672 484.073 965.743C483.984 963.74 483.327 961.663 481.805 960.267Z" fill="#474210"/>
<path id="Vector_125" d="M372.349 1044.77C371.165 1043.69 369.711 1043 368.071 1043H366.054C364.504 1043 362.874 1043.67 361.776 1044.77C360.727 1045.82 359.937 1047.54 360.004 1049.05C360.075 1050.61 360.587 1052.24 361.776 1053.33C362.96 1054.42 364.414 1055.1 366.054 1055.1H368.071C369.621 1055.1 371.251 1054.43 372.349 1053.33C373.399 1052.28 374.188 1050.56 374.121 1049.05C374.051 1047.49 373.536 1045.86 372.349 1044.77Z" fill="#474210"/>
</g>
</g>
<g id="Group_9">
<g id="Group_10">
<path id="Vector_126" d="M308.29 906.738C308.868 904.934 310.029 902.924 311.814 902.11C313.335 901.415 314.166 900.99 315.887 900.999C317.938 901.009 319.927 901.842 321.386 903.3C322.944 904.855 323.785 907.008 323.794 909.21C323.802 911.41 322.947 913.574 321.397 915.125C319.941 916.581 317.952 917.417 315.897 917.427C314.12 917.436 313.404 917.002 311.822 916.319C310.182 915.612 308.747 913.339 308.298 911.692C308.13 911.074 308.075 910.382 308.073 909.68C307.937 908.699 307.982 907.696 308.29 906.738Z" fill="#474210"/>
<path id="Vector_127" d="M165.29 900.738C165.868 898.934 167.029 896.924 168.814 896.11C170.335 895.415 171.166 894.99 172.887 894.999C174.938 895.009 176.927 895.842 178.386 897.299C179.944 898.855 180.785 901.008 180.794 903.21C180.802 905.409 179.947 907.574 178.397 909.125C176.941 910.581 174.952 911.417 172.897 911.427C171.12 911.436 170.404 911.002 168.822 910.319C167.182 909.612 165.747 907.339 165.298 905.692C165.13 905.074 165.075 904.382 165.073 903.68C164.937 902.699 164.982 901.696 165.29 900.738Z" fill="#474210"/>
<path id="Vector_128" d="M612.29 908.738C612.868 906.934 614.029 904.924 615.814 904.11C617.335 903.415 618.166 902.99 619.887 902.999C621.938 903.009 623.927 903.842 625.386 905.3C626.944 906.855 627.785 909.008 627.794 911.21C627.802 913.41 626.947 915.574 625.397 917.125C623.941 918.581 621.952 919.417 619.897 919.427C618.12 919.436 617.404 919.002 615.822 918.319C614.182 917.612 612.747 915.339 612.298 913.692C612.13 913.074 612.075 912.382 612.073 911.68C611.937 910.699 611.982 909.696 612.29 908.738Z" fill="#474210"/>
<path id="Vector_129" d="M269.358 864.149C270.022 863.478 271.113 862.972 272.068 863.015C273.059 863.06 274.088 863.389 274.778 864.149C275.467 864.907 275.9 865.838 275.9 866.887V867.46C275.9 868.453 275.474 869.496 274.778 870.198C274.114 870.869 273.023 871.375 272.068 871.332C271.077 871.287 270.048 870.959 269.358 870.198C268.67 869.441 268.236 868.51 268.236 867.46V866.887C268.236 865.894 268.663 864.852 269.358 864.149Z" fill="#474210"/>
<path id="Vector_130" d="M605.076 859.989C605.74 859.318 606.831 858.812 607.786 858.855C608.777 858.899 609.806 859.228 610.496 859.989C611.185 860.746 611.618 861.677 611.618 862.727V863.3C611.618 864.292 611.19 865.335 610.496 866.037C609.832 866.708 608.741 867.214 607.786 867.171C606.795 867.127 605.766 866.798 605.076 866.037C604.388 865.28 603.954 864.349 603.954 863.3V862.727C603.952 861.734 604.381 860.691 605.076 859.989Z" fill="#474210"/>
<path id="Vector_131" d="M541.4 927.523C542.064 926.852 543.155 926.346 544.11 926.389C545.102 926.434 546.131 926.762 546.821 927.523C547.509 928.28 547.943 929.211 547.943 930.261V930.834C547.943 931.827 547.514 932.87 546.821 933.572C546.156 934.243 545.065 934.749 544.11 934.706C543.119 934.661 542.09 934.332 541.4 933.572C540.712 932.815 540.278 931.884 540.278 930.834V930.261C540.276 929.268 540.705 928.225 541.4 927.523Z" fill="#474210"/>
<path id="Vector_132" d="M1740.25 865.271C1741.58 863.927 1743.76 862.917 1745.67 863.003C1747.65 863.093 1749.71 863.752 1751.09 865.271C1752.47 866.786 1753.34 868.649 1753.34 870.747V871.895C1753.34 873.881 1752.48 875.966 1751.09 877.37C1749.76 878.713 1747.58 879.724 1745.67 879.638C1743.69 879.549 1741.63 878.892 1740.25 877.37C1738.87 875.854 1738 873.992 1738 871.895V870.747C1738 868.761 1738.86 866.676 1740.25 865.271Z" fill="#474210"/>
<path id="Vector_133" d="M436.246 860.271C437.576 858.929 439.758 857.917 441.668 858.003C443.65 858.093 445.706 858.75 447.09 860.271C448.467 861.787 449.336 863.649 449.336 865.747V866.895C449.336 868.881 448.48 870.966 447.09 872.37C445.76 873.714 443.578 874.724 441.668 874.638C439.685 874.549 437.627 873.89 436.246 872.37C434.869 870.856 434 868.992 434 866.895V865.747C434 863.761 434.855 861.676 436.246 860.271Z" fill="#474210"/>
<path id="Vector_134" d="M1035.79 930.999C1043.5 930.999 1043.51 943.098 1035.79 943.098C1028.08 943.098 1028.07 930.999 1035.79 930.999Z" fill="#474210"/>
<path id="Vector_135" d="M96.851 841.416C102.838 841.416 102.848 850.813 96.851 850.813C90.8644 850.813 90.8558 841.416 96.851 841.416Z" fill="#474210"/>
<path id="Vector_136" d="M481.577 820.514C487.564 820.514 487.574 829.911 481.577 829.911C475.59 829.911 475.58 820.514 481.577 820.514Z" fill="#474210"/>
<path id="Vector_137" d="M1223.25 949.272C1224.58 947.93 1226.76 946.918 1228.67 947.004C1230.65 947.094 1232.71 947.751 1234.09 949.272C1235.47 950.786 1236.34 952.65 1236.34 954.748V957.329C1236.34 959.315 1235.48 961.4 1234.09 962.804C1232.76 964.147 1230.58 965.159 1228.67 965.072C1226.69 964.983 1224.63 964.326 1223.25 962.804C1221.87 961.29 1221 959.427 1221 957.329V954.748C1221 952.762 1221.86 950.676 1223.25 949.272Z" fill="#474210"/>
<path id="Vector_138" d="M1123.25 873.266C1124.75 871.876 1126.59 870.998 1128.67 870.998H1131.23C1133.19 870.998 1135.26 871.862 1136.65 873.266C1137.98 874.609 1138.98 876.813 1138.9 878.742C1138.81 880.745 1138.16 882.822 1136.65 884.218C1135.15 885.608 1133.31 886.486 1131.23 886.486H1128.67C1126.71 886.486 1124.64 885.622 1123.25 884.218C1121.92 882.875 1120.92 880.671 1121.01 878.742C1121.09 876.739 1121.75 874.662 1123.25 873.266Z" fill="#474210"/>
<path id="Vector_139" d="M901.759 933.771C902.931 932.685 904.371 931.999 905.994 931.999H907.99C909.525 931.999 911.139 932.673 912.225 933.771C913.264 934.821 914.045 936.542 913.98 938.049C913.911 939.613 913.402 941.236 912.225 942.327C911.053 943.413 909.613 944.1 907.99 944.1H905.994C904.457 944.1 902.845 943.425 901.759 942.327C900.72 941.277 899.938 939.557 900.004 938.049C900.074 936.483 900.584 934.861 901.759 933.771Z" fill="#474210"/>
</g>
</g>
<path id="Vector_140" d="M12 282.994L1226 315.056V339.994L12 311.493V282.994Z" fill="#012F45"/>
<g id="stars">
<g id="Group_11">
<g id="Group_12">
<path id="stea_1" d="M1553.07 282.227L1550.63 280.894C1548.44 279.692 1546.63 277.886 1545.43 275.686L1544.09 273.248C1543.91 272.909 1543.42 272.909 1543.23 273.248L1541.9 275.686C1540.7 277.884 1538.89 279.691 1536.69 280.894L1534.25 282.227C1533.92 282.413 1533.92 282.9 1534.25 283.086L1536.69 284.419C1538.89 285.622 1540.7 287.427 1541.9 289.627L1543.23 292.065C1543.42 292.404 1543.91 292.404 1544.09 292.065L1545.43 289.627C1546.63 287.429 1548.44 285.622 1550.63 284.419L1553.07 283.086C1553.41 282.9 1553.41 282.413 1553.07 282.227Z" fill="#C9B365"/>
</g>
<g id="Group_13">
<path id="stea_2" d="M1510.75 270.619L1508.74 269.518C1506.92 268.525 1505.43 267.033 1504.44 265.217L1503.33 263.204C1503.18 262.924 1502.78 262.924 1502.63 263.204L1501.52 265.217C1500.53 267.033 1499.04 268.525 1497.22 269.518L1495.21 270.619C1494.93 270.772 1494.93 271.175 1495.21 271.328L1497.22 272.429C1499.04 273.422 1500.53 274.914 1501.52 276.73L1502.63 278.743C1502.78 279.023 1503.18 279.023 1503.33 278.743L1504.44 276.73C1505.43 274.914 1506.92 273.422 1508.74 272.429L1510.75 271.328C1511.03 271.175 1511.03 270.772 1510.75 270.619Z" fill="#C9B365"/>
</g>
<g id="Group_14">
<path id="stea_3" d="M1730.75 393.62L1728.74 392.519C1726.92 391.526 1725.43 390.034 1724.44 388.218L1723.33 386.205C1723.18 385.925 1722.78 385.925 1722.63 386.205L1721.52 388.218C1720.53 390.034 1719.04 391.526 1717.22 392.519L1715.21 393.62C1714.93 393.773 1714.93 394.176 1715.21 394.329L1717.22 395.43C1719.04 396.423 1720.53 397.915 1721.52 399.73L1722.63 401.744C1722.78 402.024 1723.18 402.024 1723.33 401.744L1724.44 399.73C1725.43 397.915 1726.92 396.423 1728.74 395.43L1730.75 394.329C1731.03 394.174 1731.03 393.773 1730.75 393.62Z" fill="#C9B365"/>
</g>
<g id="Group_15">
<path id="stea_4" d="M1483.75 444.622L1481.74 443.521C1479.92 442.528 1478.43 441.036 1477.44 439.221L1476.34 437.205C1476.18 436.925 1475.78 436.925 1475.63 437.205L1474.53 439.221C1473.53 441.036 1472.04 442.528 1470.23 443.521L1468.21 444.622C1467.93 444.775 1467.93 445.178 1468.21 445.331L1470.23 446.432C1472.04 447.425 1473.53 448.917 1474.53 450.733L1475.63 452.746C1475.78 453.026 1476.18 453.026 1476.34 452.746L1477.44 450.733C1478.43 448.917 1479.92 447.425 1481.74 446.432L1483.75 445.331C1484.03 445.178 1484.03 444.777 1483.75 444.622Z" fill="#C9B365"/>
</g>
<g id="Group_16">
<path id="stea_5" d="M952.636 408.176L951.531 407.572C950.537 407.028 949.718 406.209 949.174 405.214L948.57 404.11C948.486 403.957 948.265 403.957 948.181 404.11L947.577 405.214C947.033 406.209 946.214 407.028 945.22 407.572L944.115 408.176C943.962 408.26 943.962 408.481 944.115 408.565L945.22 409.169C946.214 409.713 947.033 410.532 947.577 411.526L948.181 412.631C948.265 412.784 948.486 412.784 948.57 412.631L949.174 411.526C949.718 410.532 950.537 409.713 951.531 409.169L952.636 408.565C952.789 408.481 952.789 408.259 952.636 408.176Z" fill="#C9B365"/>
</g>
<g id="Group_17">
<path id="stea_6" d="M1188.64 568.177L1187.53 567.573C1186.54 567.029 1185.72 566.21 1185.17 565.216L1184.57 564.111C1184.49 563.958 1184.27 563.958 1184.18 564.111L1183.58 565.216C1183.03 566.21 1182.21 567.029 1181.22 567.573L1180.11 568.177C1179.96 568.262 1179.96 568.482 1180.11 568.566L1181.22 569.17C1182.21 569.714 1183.03 570.533 1183.58 571.528L1184.18 572.632C1184.27 572.785 1184.49 572.785 1184.57 572.632L1185.17 571.528C1185.72 570.533 1186.54 569.714 1187.53 569.17L1188.64 568.566C1188.79 568.482 1188.79 568.26 1188.64 568.177Z" fill="#C9B365"/>
</g>
<g id="Group_18">
<path id="stea_7" d="M780.636 134.174L779.531 133.57C778.537 133.026 777.718 132.207 777.174 131.212L776.57 130.108C776.486 129.954 776.265 129.954 776.181 130.108L775.577 131.212C775.033 132.207 774.214 133.026 773.22 133.57L772.115 134.174C771.962 134.258 771.962 134.478 772.115 134.563L773.22 135.167C774.214 135.71 775.033 136.53 775.577 137.524L776.181 138.629C776.265 138.782 776.486 138.782 776.57 138.629L777.174 137.524C777.718 136.53 778.537 135.71 779.531 135.167L780.636 134.563C780.789 134.478 780.789 134.256 780.636 134.174Z" fill="#C9B365"/>
</g>
<g id="Group_19">
<path id="stea_8" d="M1619.64 184.174L1618.53 183.57C1617.54 183.026 1616.72 182.207 1616.17 181.213L1615.57 180.108C1615.49 179.955 1615.27 179.955 1615.18 180.108L1614.58 181.213C1614.03 182.207 1613.21 183.026 1612.22 183.57L1611.11 184.174C1610.96 184.258 1610.96 184.479 1611.11 184.563L1612.22 185.167C1613.21 185.711 1614.03 186.53 1614.58 187.525L1615.18 188.629C1615.27 188.782 1615.49 188.782 1615.57 188.629L1616.17 187.525C1616.72 186.53 1617.54 185.711 1618.53 185.167L1619.64 184.563C1619.79 184.479 1619.79 184.258 1619.64 184.174Z" fill="#C9B365"/>
</g>
<g id="Group_20">
<path id="stea_9" d="M668.636 573.177L667.531 572.573C666.537 572.029 665.718 571.21 665.174 570.216L664.57 569.111C664.486 568.958 664.265 568.958 664.181 569.111L663.577 570.216C663.033 571.21 662.214 572.029 661.22 572.573L660.115 573.177C659.962 573.262 659.962 573.482 660.115 573.566L661.22 574.17C662.214 574.714 663.033 575.533 663.577 576.528L664.181 577.632C664.265 577.786 664.486 577.786 664.57 577.632L665.174 576.528C665.718 575.533 666.537 574.714 667.531 574.17L668.636 573.566C668.789 573.482 668.789 573.262 668.636 573.177Z" fill="#C9B365"/>
</g>
<g id="Group_21">
<path id="stea_10" d="M855.636 237.175L854.531 236.571C853.537 236.027 852.718 235.208 852.174 234.213L851.57 233.108C851.486 232.955 851.265 232.955 851.181 233.108L850.577 234.213C850.033 235.208 849.214 236.025 848.22 236.571L847.115 237.175C846.962 237.259 846.962 237.479 847.115 237.563L848.22 238.167C849.214 238.711 850.033 239.53 850.577 240.525L851.181 241.63C851.265 241.783 851.486 241.783 851.57 241.63L852.174 240.525C852.718 239.53 853.537 238.711 854.531 238.167L855.636 237.563C855.789 237.479 855.789 237.259 855.636 237.175Z" fill="#C9B365"/>
</g>
<g id="Group_22">
<path id="stea_11" d="M1649.25 544.229L1651.69 542.896C1653.89 541.694 1655.7 539.888 1656.9 537.688L1658.23 535.25C1658.42 534.911 1658.91 534.911 1659.09 535.25L1660.43 537.688C1661.63 539.886 1663.43 541.693 1665.63 542.896L1668.07 544.229C1668.41 544.415 1668.41 544.902 1668.07 545.088L1665.63 546.422C1663.44 547.623 1661.63 549.431 1660.43 551.629L1659.09 554.067C1658.91 554.406 1658.42 554.406 1658.23 554.067L1656.9 551.629C1655.7 549.431 1653.89 547.624 1651.69 546.422L1649.25 545.088C1648.92 544.902 1648.92 544.415 1649.25 544.229Z" fill="#C9B365"/>
</g>
<g id="Group_23">
<path id="stea_12" d="M1080.25 476.229L1082.69 474.895C1084.89 473.694 1086.7 471.885 1087.9 469.688L1089.23 467.249C1089.42 466.91 1089.91 466.91 1090.09 467.249L1091.43 469.688C1092.63 471.885 1094.43 473.692 1096.63 474.895L1099.07 476.229C1099.41 476.414 1099.41 476.901 1099.07 477.087L1096.63 478.421C1094.44 479.622 1092.63 481.431 1091.43 483.628L1090.09 486.066C1089.91 486.405 1089.42 486.405 1089.23 486.066L1087.9 483.628C1086.7 481.431 1084.89 479.624 1082.69 478.421L1080.25 477.087C1079.92 476.901 1079.92 476.414 1080.25 476.229Z" fill="#C9B365"/>
</g>
<g id="Group_24">
<path id="stea_13" d="M881.254 563.229L883.693 561.896C885.89 560.695 887.697 558.886 888.9 556.689L890.233 554.25C890.419 553.911 890.906 553.911 891.092 554.25L892.426 556.689C893.627 558.886 895.434 560.693 897.633 561.896L900.071 563.229C900.41 563.415 900.41 563.902 900.071 564.088L897.633 565.422C895.435 566.623 893.628 568.431 892.426 570.629L891.092 573.067C890.906 573.406 890.419 573.406 890.233 573.067L888.9 570.629C887.699 568.431 885.89 566.624 883.693 565.422L881.254 564.088C880.915 563.902 880.915 563.415 881.254 563.229Z" fill="#C9B365"/>
</g>
<g id="Group_26">
<path id="stea_14" d="M700.254 339.228L702.693 337.894C704.89 336.693 706.697 334.884 707.9 332.687L709.233 330.249C709.419 329.91 709.906 329.91 710.092 330.249L711.426 332.687C712.627 334.884 714.434 336.691 716.633 337.894L719.071 339.228C719.41 339.413 719.41 339.9 719.071 340.086L716.633 341.42C714.435 342.621 712.628 344.43 711.426 346.627L710.092 349.065C709.906 349.404 709.419 349.404 709.233 349.065L707.9 346.627C706.699 344.43 704.89 342.623 702.693 341.42L700.254 340.086C699.915 339.9 699.915 339.413 700.254 339.228Z" fill="#C9B365"/>
</g>
<g id="Group_28">
<path id="stea_15" d="M1431.21 186.618L1433.23 185.517C1435.04 184.524 1436.53 183.032 1437.53 181.217L1438.63 179.203C1438.78 178.923 1439.18 178.923 1439.34 179.203L1440.44 181.217C1441.43 183.032 1442.92 184.524 1444.74 185.517L1446.75 186.618C1447.03 186.771 1447.03 187.174 1446.75 187.327L1444.74 188.429C1442.92 189.422 1441.43 190.913 1440.44 192.729L1439.34 194.742C1439.18 195.023 1438.78 195.023 1438.63 194.742L1437.53 192.729C1436.53 190.913 1435.04 189.422 1433.23 188.429L1431.21 187.327C1430.93 187.174 1430.93 186.771 1431.21 186.618Z" fill="#C9B365"/>
</g>
<g id="Group_29">
<path id="stea_16" d="M772.21 520.623L774.224 519.521C776.039 518.528 777.531 517.036 778.524 515.221L779.625 513.206C779.778 512.925 780.181 512.925 780.334 513.206L781.435 515.221C782.428 517.036 783.92 518.528 785.736 519.521L787.749 520.623C788.03 520.776 788.03 521.178 787.749 521.332L785.736 522.433C783.92 523.426 782.428 524.918 781.435 526.733L780.334 528.746C780.181 529.027 779.778 529.027 779.625 528.746L778.524 526.733C777.531 524.918 776.039 523.426 774.224 522.433L772.21 521.332C771.93 521.178 771.93 520.776 772.21 520.623Z" fill="#C9B365"/>
</g>
<g id="Group_30">
<path id="stea_17" d="M847.21 352.62L849.224 351.518C851.039 350.525 852.531 349.034 853.524 347.218L854.625 345.205C854.778 344.924 855.181 344.924 855.334 345.205L856.435 347.218C857.428 349.034 858.92 350.525 860.736 351.518L862.749 352.62C863.03 352.773 863.03 353.175 862.749 353.329L860.736 354.43C858.92 355.423 857.428 356.915 856.435 358.73L855.334 360.744C855.181 361.024 854.778 361.024 854.625 360.744L853.524 358.73C852.531 356.915 851.039 355.423 849.224 354.43L847.21 353.329C846.93 353.175 846.93 352.773 847.21 352.62Z" fill="#C9B365"/>
</g>
<g id="Group_31">
<path id="stea_18" d="M1091.11 246.175L1092.22 245.571C1093.21 245.027 1094.03 244.208 1094.58 243.213L1095.18 242.108C1095.27 241.955 1095.49 241.955 1095.57 242.108L1096.17 243.213C1096.72 244.208 1097.54 245.027 1098.53 245.571L1099.64 246.175C1099.79 246.259 1099.79 246.479 1099.64 246.564L1098.53 247.168C1097.54 247.711 1096.72 248.53 1096.17 249.525L1095.57 250.63C1095.49 250.783 1095.27 250.783 1095.18 250.63L1094.58 249.525C1094.03 248.53 1093.21 247.713 1092.22 247.168L1091.11 246.564C1090.96 246.479 1090.96 246.259 1091.11 246.175Z" fill="#C9B365"/>
</g>
<g id="Group_32">
<path id="stea_19" d="M1657.11 524.177L1658.22 523.573C1659.21 523.029 1660.03 522.21 1660.58 521.215L1661.18 520.111C1661.27 519.957 1661.49 519.957 1661.57 520.111L1662.17 521.215C1662.72 522.21 1663.54 523.029 1664.53 523.573L1665.64 524.177C1665.79 524.261 1665.79 524.481 1665.64 524.566L1664.53 525.17C1663.54 525.714 1662.72 526.533 1662.17 527.527L1661.57 528.632C1661.49 528.785 1661.27 528.785 1661.18 528.632L1660.58 527.527C1660.03 526.533 1659.21 525.715 1658.22 525.17L1657.11 524.566C1656.96 524.481 1656.96 524.261 1657.11 524.177Z" fill="#C9B365"/>
</g>
</g>
</g>
<path id="comet_1" opacity="0.2" d="M968.182 459.412C964.166 453.317 965.85 445.119 971.947 441.103L1176.55 322.994L986.493 463.177C980.396 467.193 972.198 465.507 968.182 459.412Z" fill="url(#paint8_linear_84_234)"/>
<path id="comet_2" opacity="0.2" d="M1269.71 380.936C1266.56 376.157 1267.88 369.732 1272.66 366.583L1433.06 273.994L1284.06 383.887C1279.29 387.036 1272.86 385.715 1269.71 380.936Z" fill="url(#paint9_linear_84_234)"/>
<path id="comet_3" opacity="0.2" d="M1103.06 277.228C1101.11 274.269 1101.93 270.289 1104.89 268.339L1204.23 210.993L1111.95 279.058C1108.99 281.007 1105.01 280.188 1103.06 277.228Z" fill="url(#paint10_linear_84_234)"/>
<path id="moon" d="M1769.48 165.27C1773.34 163.587 1777.38 162.871 1781.32 163.01C1774.6 170.755 1772.49 181.983 1776.83 192.037C1781.17 202.089 1790.78 208.215 1801 208.574C1798.41 211.562 1795.13 214.031 1791.27 215.714C1777.4 221.759 1761.28 215.366 1755.27 201.437C1749.25 187.506 1755.62 171.315 1769.48 165.27Z" fill="#C9B365"/>
<g id="Camels">
<g id="Group_33">
<g id="Group_34">
<path id="Vector_162" d="M1114.09 842.069L1123.54 832.238C1126.53 829.134 1130.81 827.637 1135.08 828.209C1141.19 829.025 1147.36 827.241 1152.09 823.29L1165.19 812.347C1169.65 808.622 1175.47 806.941 1181.22 807.71L1198.77 810.057C1204.12 810.774 1208.99 813.555 1212.33 817.81L1230.63 841.149C1240.07 853.182 1245.77 867.715 1247.04 882.955L1248.94 905.67L1268.65 932.755L1268.18 1002.7L1257.27 1001.24L1259.04 938.137C1259.04 938.137 1222.44 921.017 1211.53 886.219C1211.53 886.219 1172.58 903.236 1138.31 885.315L1152.33 988.188L1140.75 986.639L1120.38 882.154L1094.47 879.9C1085.73 879.139 1078.11 873.674 1074.58 865.646L1056.45 824.358L1037.69 822.674C1034.15 822.356 1031.58 819.148 1032.06 815.622C1032.72 810.628 1037.09 806.968 1042.12 807.181L1057.55 807.834C1057.55 807.834 1057.6 802.091 1066.7 801.057C1071.22 800.544 1075.45 803.427 1076.73 807.792C1080.48 820.631 1091.2 847.53 1114.09 842.069Z" fill="#504E12"/>
<path id="Vector_163" d="M1121.72 876.428L1081.91 978.769L1092.28 980.157L1131.14 893.183L1121.72 876.428Z" fill="#504E12"/>
<path id="Vector_164" d="M1201.67 881.011L1229.16 941.367L1190.54 993.3L1198.73 994.394L1241.14 943.179L1236.71 889.033L1201.67 881.011Z" fill="#504E12"/>
</g>
</g>
<g id="Group_35">
<g id="Group_36">
<g id="Group_37">
<path id="Vector_165" d="M1351.32 862.185L1370.88 837.366C1374.8 832.39 1381.91 831.314 1387.13 834.906L1393.98 839.62C1397.55 842.083 1402.38 841.596 1405.4 838.47L1409.66 834.052C1414.69 828.83 1421.8 826.134 1429.03 826.704L1429.57 826.747C1435.88 827.244 1441.74 830.188 1445.91 834.947L1467.59 859.703C1474.75 867.87 1479.35 877.952 1480.84 888.706L1484.67 916.446L1505.1 941.53L1508.31 1009L1497.71 1008.16L1496.11 947.224C1496.11 947.224 1459.92 932.633 1447.59 899.652C1447.59 899.652 1410.92 918.099 1376.94 902.614L1395.84 1001.07L1384.59 1000.18L1359.49 900.504L1338.2 899.811C1327.38 899.459 1317.62 893.235 1312.74 883.575L1294.81 848.125L1276.48 847.477C1273.14 847.36 1270.56 844.475 1270.83 841.137C1271.22 836.197 1275.31 832.371 1280.26 832.312L1295.01 832.135C1295.01 832.135 1294.77 826.877 1302.83 825.242C1307.45 824.305 1312.04 826.99 1313.62 831.432C1318.01 843.74 1329.74 868.589 1351.32 862.185Z" fill="#504E12"/>
<path id="Vector_166" d="M1437.81 895.147L1467.47 951.903L1432.96 1004L1440.91 1004.63L1479.12 953.022L1472.02 901.047L1437.81 895.147Z" fill="#504E12"/>
</g>
</g>
<path id="Vector_167" d="M1362.41 894.175L1327.67 936.512L1354.13 993.07C1357.61 991.51 1359.29 987.519 1357.96 983.941L1340.33 936.313L1372.67 912.626L1362.41 894.175Z" fill="#504E12"/>
</g>
<path id="Vector_168" d="M1323.05 865.306C1310.55 879.126 1294.57 886.2 1278.55 886.099C1261.8 885.993 1245.54 878.302 1231.53 865.989C1230.93 865.461 1230.37 866.769 1230.97 867.294C1245.38 879.962 1262.22 887.802 1279.46 887.607C1295.49 887.424 1311.33 880.196 1323.83 866.375C1324.38 865.762 1323.59 864.698 1323.05 865.306Z" fill="#504E12"/>
<path id="Vector_169" d="M1112.07 851.978C1104.83 864.915 1097.33 878.353 1087.7 887.424C1078.44 896.154 1067.98 899.583 1059.79 893.423C1042.69 880.56 1044.83 846.203 1049.48 818.024C1049.69 816.774 1048.38 816.977 1048.18 818.221C1043.3 847.728 1041.47 884.831 1060.6 896.285C1068.66 901.108 1078.43 897.8 1087.25 889.883C1097.52 880.653 1105.47 866.444 1113.1 852.804C1113.69 851.733 1112.66 850.92 1112.07 851.978Z" fill="#504E12"/>
</g>
</g>
</g>
<defs>
<radialGradient id="paint0_radial_84_234" cx="0" cy="0" r="1" gradientUnits="userSpaceOnUse" gradientTransform="translate(960 538.504) scale(1388.93 779.108)">
<stop stop-color="white"/>
<stop offset="0.3674" stop-color="#FBFBFB"/>
<stop offset="0.7532" stop-color="#F0EFEE"/>
<stop offset="1" stop-color="#E6E4E2"/>
</radialGradient>
<radialGradient id="paint1_radial_84_234" cx="0" cy="0" r="1" gradientUnits="userSpaceOnUse" gradientTransform="translate(960 538.504) scale(1388.93 779.108)">
<stop stop-color="white"/>
<stop offset="0.3674" stop-color="#FBFBFB"/>
<stop offset="0.7532" stop-color="#F0EFEE"/>
<stop offset="1" stop-color="#E6E4E2"/>
</radialGradient>
<radialGradient id="paint2_radial_84_234" cx="0" cy="0" r="1" gradientUnits="userSpaceOnUse" gradientTransform="translate(1096.38 826.499) rotate(-90) scale(143.368 290.921)">
<stop offset="0.0081" stop-color="#525C12"/>
<stop offset="1" stop-color="#556613"/>
</radialGradient>
<radialGradient id="paint3_radial_84_234" cx="0" cy="0" r="1" gradientUnits="userSpaceOnUse" gradientTransform="translate(1312.96 841.852) rotate(-90) scale(207.171 420.389)">
<stop offset="0.0081" stop-color="#525C12"/>
<stop offset="1" stop-color="#556613"/>
</radialGradient>
<radialGradient id="paint4_radial_84_234" cx="0" cy="0" r="1" gradientUnits="userSpaceOnUse" gradientTransform="translate(1615.45 721.816) scale(128.535 128.536)">
<stop offset="0.0081" stop-color="#525C12"/>
<stop offset="1" stop-color="#556613"/>
</radialGradient>
<radialGradient id="paint5_radial_84_234" cx="0" cy="0" r="1" gradientUnits="userSpaceOnUse" gradientTransform="translate(1074.97 859.409) rotate(-90) scale(79.9763 162.287)">
<stop offset="0.0054" stop-color="#9A9C2E"/>
<stop offset="0.9541" stop-color="#7D8527"/>
</radialGradient>
<radialGradient id="paint6_radial_84_234" cx="0" cy="0" r="1" gradientUnits="userSpaceOnUse" gradientTransform="translate(924.762 855.531) rotate(-90) scale(71.8021 145.7)">
<stop offset="0.0054" stop-color="#9A9C2E"/>
<stop offset="0.9541" stop-color="#7D8527"/>
</radialGradient>
<radialGradient id="paint7_radial_84_234" cx="0" cy="0" r="1" gradientUnits="userSpaceOnUse" gradientTransform="translate(1037 786.11) scale(112.695 112.696)">
<stop stop-color="#9A9C2E"/>
<stop offset="0.9541" stop-color="#7D8527"/>
</radialGradient>
<linearGradient id="paint8_linear_84_234" x1="1171.37" y1="325.525" x2="953.228" y2="469.264" gradientUnits="userSpaceOnUse">
<stop stop-color="#C9B365" stop-opacity="0"/>
<stop offset="0.6568" stop-color="#C9B365" stop-opacity="0.76"/>
<stop offset="0.7781" stop-color="#C9B365" stop-opacity="0.6768"/>
<stop offset="0.9767" stop-color="#C9B365" stop-opacity="0.966"/>
<stop offset="1" stop-color="#C9B365"/>
</linearGradient>
<linearGradient id="paint9_linear_84_234" x1="1429" y1="275.978" x2="1257.99" y2="388.659" gradientUnits="userSpaceOnUse">
<stop stop-color="#C9B365" stop-opacity="0"/>
<stop offset="0.6568" stop-color="#C9B365" stop-opacity="0.5"/>
<stop offset="0.7781" stop-color="#C9B365" stop-opacity="0.6768"/>
<stop offset="0.9767" stop-color="#C9B365" stop-opacity="0.966"/>
<stop offset="1" stop-color="#C9B365"/>
</linearGradient>
<linearGradient id="paint10_linear_84_234" x1="1201.72" y1="212.222" x2="1095.8" y2="282.012" gradientUnits="userSpaceOnUse">
<stop stop-color="#C9B365" stop-opacity="0"/>
<stop offset="0.6568" stop-color="#C9B365" stop-opacity="0.5"/>
<stop offset="0.7781" stop-color="#C9B365" stop-opacity="0.6768"/>
<stop offset="0.9767" stop-color="#C9B365" stop-opacity="0.966"/>
<stop offset="1" stop-color="#C9B365"/>
</linearGradient>
</defs>
</svg>
